<svg xmlns="http://www.w3.org/2000/svg" xmlns:xlink="http://www.w3.org/1999/xlink" width="600" height="515" viewBox="0 0 600 515" role="img" aria-labelledby="title description">
<title id="title">Календарь GitHub. 59 активных дней; более яркая ячейка означает больше вкладов.</title>
<desc id="description">Календарь GitHub. 59 активных дней; более яркая ячейка означает больше вкладов.</desc>

<defs><linearGradient id="surface" x2="1" y2="1"><stop stop-color="#182137"/><stop offset="1" stop-color="#0D1117"/></linearGradient></defs><rect x="1" y="1" width="598" height="513" rx="24" fill="url(#surface)" stroke="#EDF2FA" stroke-opacity=".13"/><g aria-label="Каждый день — часть пути." fill="#D9B55D" opacity="1"><path d="M49.17 34.15 L49.17 32.9 L58.01 32.9 L58.01 34.15 Q57.45 34.52 56.72 34.76 Q56 35.01 55.4 35.11 L55.4 35.11 L49.13 43.06 Q49.89 44.12 50.92 45.46 Q51.94 46.79 53.09 48.23 Q54.25 49.66 55.47 51.13 Q56.69 52.6 57.85 53.92 L57.85 53.92 L59.43 54.88 L59.43 56 L53.69 56 L52.37 55.08 Q51.58 54.09 50.7 52.88 Q49.83 51.68 48.97 50.37 Q48.11 49.07 47.29 47.75 Q46.46 46.43 45.73 45.18 L45.73 45.18 L44.32 45.18 L44.32 53.79 Q45.04 53.92 45.64 54.19 Q46.23 54.45 46.66 54.75 L46.66 54.75 L46.66 56 L36.66 56 L36.66 54.75 Q37.32 54.42 38.01 54.17 Q38.71 53.92 39.37 53.79 L39.37 53.79 L39.37 35.11 Q38.61 35.01 37.9 34.75 Q37.19 34.48 36.66 34.15 L36.66 34.15 L36.66 32.9 L46.66 32.9 L46.66 34.15 Q46.23 34.42 45.62 34.68 Q45.01 34.95 44.32 35.11 L44.32 35.11 L44.32 43.49 L46.26 43.03 L51.58 35.11 Q50.92 34.98 50.27 34.7 Q49.63 34.42 49.17 34.15 L49.17 34.15 M74.94 51.22 L74.94 51.22 Q74.94 51.94 74.96 52.47 Q74.97 53 75.04 53.59 L75.04 53.59 L77.32 53.92 L77.32 55.08 Q76.92 55.27 76.24 55.47 Q75.57 55.67 74.82 55.85 Q74.08 56.03 73.36 56.15 Q72.63 56.26 72.07 56.33 L72.07 56.33 L70.95 56.33 Q70.62 55.57 70.55 54.81 Q70.48 54.05 70.45 52.96 L70.45 52.96 L70.29 52.96 Q70.12 53.62 69.73 54.23 Q69.33 54.84 68.72 55.32 Q68.11 55.8 67.28 56.1 Q66.46 56.4 65.44 56.4 L65.44 56.4 Q64.35 56.4 63.42 56.07 Q62.5 55.74 61.81 55.14 Q61.11 54.55 60.72 53.71 Q60.32 52.87 60.32 51.81 L60.32 51.81 Q60.32 50.32 60.88 49.37 Q61.44 48.41 62.65 47.8 Q63.85 47.19 65.75 46.89 Q67.65 46.59 70.35 46.46 L70.35 46.46 Q70.62 43.63 70.12 42.3 Q69.63 40.98 67.98 40.98 L67.98 40.98 Q66.95 40.98 66.1 41.31 L66.1 41.31 L64.55 45.27 L63.09 45.27 Q62.83 44.88 62.58 44.37 Q62.33 43.86 62.12 43.28 Q61.91 42.7 61.76 42.11 Q61.61 41.51 61.54 40.95 L61.54 40.95 Q62.8 40.09 64.78 39.6 Q66.76 39.1 68.97 39.1 L68.97 39.1 Q70.85 39.1 72.04 39.52 Q73.22 39.93 73.9 40.64 Q74.58 41.35 74.84 42.3 Q75.11 43.26 75.11 44.35 L75.11 44.35 Q75.11 46.33 75.02 47.93 Q74.94 49.53 74.94 51.22 M67.52 53.76 L67.52 53.76 Q68.21 53.76 68.7 53.49 Q69.2 53.23 69.54 52.87 Q69.89 52.5 70.07 52.07 Q70.25 51.64 70.35 51.31 L70.35 51.31 L70.35 48.01 Q68.8 48.05 67.81 48.21 Q66.82 48.38 66.26 48.76 Q65.7 49.14 65.49 49.71 Q65.27 50.29 65.27 51.12 L65.27 51.12 Q65.27 52.37 65.86 53.06 Q66.46 53.76 67.52 53.76 M96.62 40.79 L96.62 39.5 L103.52 39.5 L103.52 40.79 Q102.96 41.18 101.64 41.58 L101.64 41.58 Q100.58 42.97 99.61 44.14 Q98.63 45.31 97.58 46.56 L97.58 46.56 Q98.01 47.16 98.63 48.01 Q99.26 48.87 99.99 49.86 Q100.71 50.85 101.52 51.89 Q102.33 52.93 103.12 53.92 L103.12 53.92 L104.31 54.71 L104.31 56 L99.62 56 L98.7 55.24 Q98.14 54.55 97.55 53.61 Q96.95 52.67 96.39 51.71 Q95.83 50.75 95.38 49.89 Q94.94 49.04 94.67 48.48 L94.67 48.48 L93.22 48.48 L93.22 53.92 Q94.25 54.19 95.2 54.71 L95.2 54.71 L95.2 56 L87.08 56 L87.08 54.71 Q87.55 54.48 87.99 54.28 Q88.44 54.09 88.93 53.92 L88.93 53.92 L88.93 48.28 L87.28 48.61 Q87.02 49.07 86.62 49.91 Q86.23 50.75 85.7 51.71 Q85.17 52.67 84.59 53.62 Q84.02 54.58 83.42 55.24 L83.42 55.24 L82.43 56 L77.81 56 L77.81 54.71 L79.2 53.92 Q80.02 52.96 80.78 51.94 Q81.54 50.92 82.2 49.96 Q82.86 49 83.42 48.18 Q83.98 47.35 84.44 46.76 L84.44 46.76 Q83.26 45.51 82.28 44.28 Q81.31 43.06 80.25 41.58 L80.25 41.58 Q79.4 41.38 78.6 40.79 L78.6 40.79 L78.6 39.5 L85.5 39.5 L85.5 40.79 Q84.87 41.25 83.85 41.58 L83.85 41.58 Q84.28 42.37 84.68 43 Q85.07 43.63 85.48 44.22 Q85.9 44.81 86.34 45.42 Q86.79 46.03 87.38 46.83 L87.38 46.83 L88.93 46.83 L88.93 41.58 Q88.37 41.45 87.99 41.25 Q87.61 41.05 87.25 40.79 L87.25 40.79 L87.25 39.5 L94.84 39.5 L94.84 40.79 Q94.51 41.05 94.16 41.25 Q93.82 41.45 93.22 41.58 L93.22 41.58 L93.22 47.02 L94.91 46.69 Q95.5 45.9 95.91 45.31 Q96.32 44.71 96.7 44.14 Q97.08 43.56 97.45 42.97 Q97.81 42.37 98.27 41.58 L98.27 41.58 Q97.81 41.41 97.41 41.25 Q97.02 41.08 96.62 40.79 L96.62 40.79 M120.48 56 L108.17 56 L106.39 60.88 L105.1 60.88 Q104.9 59.27 104.76 57.4 Q104.61 55.54 104.61 53.92 L104.61 53.92 L107.02 53.92 Q107.41 53.46 107.91 52.53 Q108.4 51.61 108.85 50.14 Q109.29 48.67 109.61 46.64 Q109.92 44.62 109.92 41.91 L109.92 41.91 Q109.23 41.74 108.58 41.45 Q107.94 41.15 107.48 40.79 L107.48 40.79 L107.48 39.5 L123.15 39.5 L123.15 40.79 Q122.26 41.38 120.97 41.58 L120.97 41.58 L120.97 53.92 L124.04 53.92 Q124.08 55.54 123.93 57.4 Q123.78 59.27 123.55 60.88 L123.55 60.88 L122.26 60.88 L120.48 56 M116.22 41.58 L112.33 41.58 Q112.33 44.35 112.03 46.4 Q111.73 48.44 111.31 49.93 Q110.88 51.41 110.41 52.39 Q109.95 53.36 109.62 53.92 L109.62 53.92 L116.22 53.92 L116.22 41.58 M132.46 41.58 L132.46 46.07 Q133.02 46 133.86 45.9 Q134.7 45.8 136.02 45.8 L136.02 45.8 Q138.6 45.8 140.2 47.04 Q141.8 48.28 141.8 50.75 L141.8 50.75 Q141.8 52.07 141.29 53.08 Q140.78 54.09 139.87 54.76 Q138.96 55.44 137.72 55.79 Q136.49 56.13 135.03 56.13 L135.03 56.13 Q134.57 56.13 133.76 56.12 Q132.95 56.1 132.01 56.07 Q131.07 56.03 130.15 56.02 Q129.22 56 128.6 56 L128.6 56 L125.53 56 L125.53 54.71 Q126.06 54.42 126.6 54.25 Q127.15 54.09 127.71 53.92 L127.71 53.92 L127.71 41.58 Q127.08 41.48 126.55 41.27 Q126.02 41.05 125.53 40.79 L125.53 40.79 L125.53 39.5 L134.44 39.5 L134.44 40.79 Q133.65 41.25 132.46 41.58 L132.46 41.58 M132.46 47.85 L132.46 54.12 Q132.79 54.19 133.17 54.22 Q133.55 54.25 133.91 54.25 L133.91 54.25 Q135.23 54.25 135.92 53.44 Q136.62 52.63 136.62 50.72 L136.62 50.72 Q136.62 48.94 135.87 48.31 Q135.13 47.68 134.08 47.68 L134.08 47.68 Q133.71 47.68 133.28 47.72 Q132.86 47.75 132.46 47.85 L132.46 47.85 M151 54.71 L151 56 L142.26 56 L142.26 54.71 Q142.66 54.48 143.09 54.28 Q143.51 54.09 144.07 53.92 L144.07 53.92 L144.07 41.58 Q142.82 41.35 142.09 40.79 L142.09 40.79 L142.09 39.5 L151 39.5 L151 40.79 Q150.61 41.05 150.05 41.23 Q149.49 41.41 148.83 41.58 L148.83 41.58 L148.83 53.92 Q149.39 54.09 149.92 54.27 Q150.44 54.45 151 54.71 L151 54.71 M152.92 40.79 L152.92 39.5 L161.7 39.5 L161.7 40.79 Q161.33 40.98 160.86 41.18 Q160.38 41.38 159.72 41.58 L159.72 41.58 L159.72 49 L159.35 52.07 L159.52 52.07 L160.81 49.6 L166.84 39.5 L173.08 39.5 L173.08 40.79 Q172.03 41.38 170.9 41.58 L170.9 41.58 L170.9 53.92 Q171.53 54.09 172.09 54.27 Q172.65 54.45 173.08 54.71 L173.08 54.71 L173.08 56 L164.3 56 L164.3 54.71 Q165.23 54.19 166.28 53.92 L166.28 53.92 L166.28 46.13 L166.61 43.53 L166.45 43.53 L165.19 46 L159.22 56 L152.92 56 L152.92 54.71 Q153.48 54.45 154.01 54.27 Q154.54 54.09 155.1 53.92 L155.1 53.92 L155.1 41.58 Q153.81 41.38 152.92 40.79 L152.92 40.79 M163.41 37.65 L163.41 37.65 Q160.15 37.65 158.66 36.46 Q157.18 35.28 157.18 33.3 L157.18 33.3 Q157.64 32.9 158.53 32.69 Q159.42 32.47 160.38 32.41 L160.38 32.41 L161.5 32.83 L161.5 35.77 Q162.32 36.13 163.45 36.13 L163.45 36.13 Q163.78 36.13 164.35 36.07 Q164.93 36 165.39 35.87 L165.39 35.87 L165.39 32.83 L166.51 32.41 Q167.41 32.47 168.26 32.67 Q169.12 32.87 169.58 33.3 L169.58 33.3 Q169.58 35.28 168.08 36.46 Q166.58 37.65 163.41 37.65  M198.82 56 L186.51 56 L184.73 60.88 L183.44 60.88 Q183.25 59.27 183.1 57.4 Q182.95 55.54 182.95 53.92 L182.95 53.92 L185.36 53.92 Q185.75 53.46 186.25 52.53 Q186.74 51.61 187.19 50.14 Q187.64 48.67 187.95 46.64 Q188.26 44.62 188.26 41.91 L188.26 41.91 Q187.57 41.74 186.93 41.45 Q186.28 41.15 185.82 40.79 L185.82 40.79 L185.82 39.5 L201.5 39.5 L201.5 40.79 Q200.6 41.38 199.32 41.58 L199.32 41.58 L199.32 53.92 L202.39 53.92 Q202.42 55.54 202.27 57.4 Q202.12 59.27 201.89 60.88 L201.89 60.88 L200.6 60.88 L198.82 56 M194.56 41.58 L190.67 41.58 Q190.67 44.35 190.37 46.4 Q190.08 48.44 189.65 49.93 Q189.22 51.41 188.76 52.39 Q188.3 53.36 187.97 53.92 L187.97 53.92 L194.56 53.92 L194.56 41.58 M218.33 52.57 L218.95 53.23 Q218.69 53.79 218.11 54.37 Q217.53 54.94 216.69 55.39 Q215.85 55.84 214.74 56.12 Q213.64 56.4 212.35 56.4 L212.35 56.4 Q210.31 56.4 208.72 55.79 Q207.14 55.17 206.08 54.04 Q205.03 52.9 204.48 51.31 Q203.94 49.73 203.94 47.75 L203.94 47.75 Q203.94 43.53 206.15 41.31 Q208.36 39.1 212.29 39.1 L212.29 39.1 Q213.97 39.1 215.44 39.57 Q216.91 40.03 217.88 41.08 Q218.85 42.14 219.23 43.86 Q219.61 45.57 219.18 48.05 L219.18 48.05 L209.05 48.05 Q209.09 50.65 210.39 52.2 Q211.69 53.76 214.23 53.76 L214.23 53.76 Q215.32 53.76 216.49 53.43 Q217.67 53.1 218.33 52.57 L218.33 52.57 M212.15 40.98 L212.15 40.98 Q211.49 40.98 210.98 41.22 Q210.47 41.45 210.09 42.06 Q209.71 42.67 209.48 43.71 Q209.25 44.75 209.15 46.33 L209.15 46.33 L214.46 46.33 Q214.7 43.76 214.17 42.37 Q213.64 40.98 212.15 40.98 M230.34 54.71 L230.34 56 L221.59 56 L221.59 54.71 Q222.05 54.45 222.62 54.27 Q223.18 54.09 223.77 53.92 L223.77 53.92 L223.77 41.58 Q223.18 41.41 222.62 41.23 Q222.05 41.05 221.59 40.79 L221.59 40.79 L221.59 39.5 L230.34 39.5 L230.34 40.79 Q229.58 41.25 228.52 41.58 L228.52 41.58 L228.52 46.73 L234.66 46.73 L234.66 41.58 Q233.7 41.38 232.85 40.79 L232.85 40.79 L232.85 39.5 L241.59 39.5 L241.59 40.79 Q240.7 41.35 239.41 41.58 L239.41 41.58 L239.41 53.92 Q240.01 54.05 240.57 54.22 Q241.13 54.38 241.59 54.71 L241.59 54.71 L241.59 56 L232.85 56 L232.85 54.71 Q233.7 54.09 234.66 53.92 L234.66 53.92 L234.66 48.61 L228.52 48.61 L228.52 53.92 Q229.08 54.05 229.53 54.25 Q229.97 54.45 230.34 54.71 L230.34 54.71 M250.43 41.58 L250.43 46.07 Q251 46 251.92 45.9 Q252.84 45.8 254.16 45.8 L254.16 45.8 Q256.87 45.8 258.49 47.04 Q260.1 48.28 260.1 50.75 L260.1 50.75 Q260.1 52.07 259.58 53.08 Q259.05 54.09 258.12 54.76 Q257.2 55.44 255.93 55.79 Q254.66 56.13 253.17 56.13 L253.17 56.13 Q252.71 56.13 251.87 56.12 Q251.03 56.1 250.05 56.07 Q249.08 56.03 248.14 56.02 Q247.2 56 246.57 56 L246.57 56 L243.5 56 L243.5 54.71 Q244 54.45 244.56 54.27 Q245.12 54.09 245.68 53.92 L245.68 53.92 L245.68 41.58 Q245.06 41.45 244.53 41.25 Q244 41.05 243.5 40.79 L243.5 40.79 L243.5 39.5 L252.41 39.5 L252.41 40.79 Q251.62 41.25 250.43 41.58 L250.43 41.58 M250.43 47.85 L250.43 54.12 Q250.76 54.19 251.14 54.22 Q251.52 54.25 251.89 54.25 L251.89 54.25 Q252.58 54.25 253.14 54.09 Q253.7 53.92 254.1 53.51 Q254.49 53.1 254.71 52.42 Q254.92 51.74 254.92 50.72 L254.92 50.72 Q254.92 49.83 254.71 49.25 Q254.49 48.67 254.11 48.33 Q253.73 47.98 253.22 47.83 Q252.71 47.68 252.12 47.68 L252.12 47.68 Q251.72 47.68 251.28 47.72 Q250.83 47.75 250.43 47.85 L250.43 47.85  M270.96 48.18 L270.96 45.21 L295.45 45.21 L295.45 48.18 L270.96 48.18  M305.68 40.79 L305.68 39.5 L314.32 39.5 L314.32 40.79 Q313.66 41.31 312.61 41.58 L312.61 41.58 L312.61 45.24 Q312.61 46.63 313.08 47.44 Q313.56 48.24 314.75 48.24 L314.75 48.24 Q315.61 48.24 316.34 47.98 Q317.06 47.72 317.62 47.35 L317.62 47.35 L317.62 41.58 Q317.09 41.48 316.7 41.28 Q316.3 41.08 315.87 40.79 L315.87 40.79 L315.87 39.5 L324.55 39.5 L324.55 40.79 Q323.66 41.35 322.37 41.58 L322.37 41.58 L322.37 53.92 Q323.03 54.09 323.56 54.27 Q324.09 54.45 324.55 54.71 L324.55 54.71 L324.55 56 L314.98 56 L314.98 54.71 Q316.34 54.15 317.62 53.92 L317.62 53.92 L317.62 48.77 Q316.83 49.63 315.54 50.18 Q314.26 50.72 312.77 50.72 L312.77 50.72 Q310.46 50.72 309.16 49.47 Q307.85 48.21 307.85 46.07 L307.85 46.07 L307.85 41.58 Q306.6 41.35 305.68 40.79 L305.68 40.79 M341.02 51.22 L341.02 51.22 Q341.02 51.94 341.04 52.47 Q341.05 53 341.12 53.59 L341.12 53.59 L343.4 53.92 L343.4 55.08 Q343 55.27 342.32 55.47 Q341.65 55.67 340.9 55.85 Q340.16 56.03 339.44 56.15 Q338.71 56.26 338.15 56.33 L338.15 56.33 L337.03 56.33 Q336.7 55.57 336.63 54.81 Q336.56 54.05 336.53 52.96 L336.53 52.96 L336.37 52.96 Q336.2 53.62 335.81 54.23 Q335.41 54.84 334.8 55.32 Q334.19 55.8 333.36 56.1 Q332.54 56.4 331.52 56.4 L331.52 56.4 Q330.43 56.4 329.5 56.07 Q328.58 55.74 327.89 55.14 Q327.19 54.55 326.8 53.71 Q326.4 52.87 326.4 51.81 L326.4 51.81 Q326.4 50.32 326.96 49.37 Q327.52 48.41 328.73 47.8 Q329.93 47.19 331.83 46.89 Q333.73 46.59 336.43 46.46 L336.43 46.46 Q336.7 43.63 336.2 42.3 Q335.71 40.98 334.06 40.98 L334.06 40.98 Q333.03 40.98 332.18 41.31 L332.18 41.31 L330.62 45.27 L329.17 45.27 Q328.91 44.88 328.66 44.37 Q328.41 43.86 328.2 43.28 Q327.98 42.7 327.84 42.11 Q327.69 41.51 327.62 40.95 L327.62 40.95 Q328.88 40.09 330.86 39.6 Q332.84 39.1 335.05 39.1 L335.05 39.1 Q336.93 39.1 338.12 39.52 Q339.3 39.93 339.98 40.64 Q340.66 41.35 340.92 42.3 Q341.18 43.26 341.18 44.35 L341.18 44.35 Q341.18 46.33 341.1 47.93 Q341.02 49.53 341.02 51.22 M333.59 53.76 L333.59 53.76 Q334.29 53.76 334.78 53.49 Q335.28 53.23 335.62 52.87 Q335.97 52.5 336.15 52.07 Q336.33 51.64 336.43 51.31 L336.43 51.31 L336.43 48.01 Q334.88 48.05 333.89 48.21 Q332.9 48.38 332.34 48.76 Q331.78 49.14 331.56 49.71 Q331.35 50.29 331.35 51.12 L331.35 51.12 Q331.35 52.37 331.94 53.06 Q332.54 53.76 333.59 53.76 M358.41 52.63 L358.94 53.33 Q358.71 53.99 358.18 54.53 Q357.65 55.08 356.91 55.51 Q356.17 55.93 355.23 56.16 Q354.29 56.4 353.26 56.4 L353.26 56.4 Q351.08 56.4 349.52 55.79 Q347.95 55.17 346.93 54.04 Q345.9 52.9 345.41 51.3 Q344.91 49.7 344.91 47.75 L344.91 47.75 Q344.91 43.56 347.21 41.33 Q349.5 39.1 353.72 39.1 L353.72 39.1 Q355.34 39.1 356.69 39.45 Q358.05 39.8 358.94 40.26 L358.94 40.26 Q358.87 40.82 358.76 41.5 Q358.64 42.17 358.49 42.85 Q358.34 43.53 358.15 44.17 Q357.95 44.81 357.75 45.24 L357.75 45.24 L356.13 45.24 L354.75 41.31 Q354.52 41.15 354.25 41.07 Q353.99 40.98 353.46 40.98 L353.46 40.98 Q352.6 40.98 351.98 41.3 Q351.35 41.61 350.9 42.37 Q350.46 43.13 350.24 44.38 Q350.03 45.64 350.03 47.49 L350.03 47.49 Q350.03 48.84 350.33 49.98 Q350.62 51.12 351.23 51.96 Q351.84 52.8 352.77 53.28 Q353.69 53.76 354.95 53.76 L354.95 53.76 Q356.1 53.76 356.96 53.43 Q357.82 53.1 358.41 52.63 L358.41 52.63 M373.59 54.71 L373.59 56 L364.22 56 L364.22 54.71 Q364.71 54.45 365.34 54.25 Q365.97 54.05 366.53 53.92 L366.53 53.92 L366.53 41.38 L364.12 41.38 L362.67 45.94 L361.28 45.94 Q361.12 45.24 360.97 44.38 Q360.82 43.53 360.72 42.65 Q360.62 41.78 360.54 40.95 Q360.46 40.13 360.46 39.5 L360.46 39.5 L377.35 39.5 Q377.35 40.09 377.29 40.92 Q377.22 41.74 377.1 42.62 Q376.99 43.49 376.84 44.37 Q376.69 45.24 376.53 45.94 L376.53 45.94 L375.14 45.94 L373.69 41.38 L371.28 41.38 L371.28 53.92 Q372.04 54.12 372.57 54.28 Q373.1 54.45 373.59 54.71 L373.59 54.71 M385.73 41.58 L385.73 46.07 Q386.3 46 387.22 45.9 Q388.14 45.8 389.46 45.8 L389.46 45.8 Q392.17 45.8 393.79 47.04 Q395.4 48.28 395.4 50.75 L395.4 50.75 Q395.4 52.07 394.88 53.08 Q394.35 54.09 393.42 54.76 Q392.5 55.44 391.23 55.79 Q389.96 56.13 388.47 56.13 L388.47 56.13 Q388.01 56.13 387.17 56.12 Q386.33 56.1 385.35 56.07 Q384.38 56.03 383.44 56.02 Q382.5 56 381.87 56 L381.87 56 L378.8 56 L378.8 54.71 Q379.3 54.45 379.86 54.27 Q380.42 54.09 380.98 53.92 L380.98 53.92 L380.98 41.58 Q380.36 41.45 379.83 41.25 Q379.3 41.05 378.8 40.79 L378.8 40.79 L378.8 39.5 L387.71 39.5 L387.71 40.79 Q386.92 41.25 385.73 41.58 L385.73 41.58 M385.73 47.85 L385.73 54.12 Q386.06 54.19 386.44 54.22 Q386.82 54.25 387.19 54.25 L387.19 54.25 Q387.88 54.25 388.44 54.09 Q389 53.92 389.4 53.51 Q389.79 53.1 390.01 52.42 Q390.22 51.74 390.22 50.72 L390.22 50.72 Q390.22 49.83 390.01 49.25 Q389.79 48.67 389.41 48.33 Q389.03 47.98 388.52 47.83 Q388.01 47.68 387.42 47.68 L387.42 47.68 Q387.02 47.68 386.58 47.72 Q386.13 47.75 385.73 47.85 L385.73 47.85  M414.74 54.71 L414.74 56 L406 56 L406 54.71 Q406.62 54.35 407.15 54.17 Q407.68 53.99 408.17 53.92 L408.17 53.92 L408.17 41.58 Q407.48 41.41 406.92 41.22 Q406.36 41.02 406 40.79 L406 40.79 L406 39.5 L425.83 39.5 L425.83 40.79 Q425.4 41.05 424.87 41.28 Q424.34 41.51 423.65 41.58 L423.65 41.58 L423.65 53.92 Q424.77 54.12 425.83 54.71 L425.83 54.71 L425.83 56 L417.08 56 L417.08 54.71 Q417.41 54.48 417.79 54.28 Q418.17 54.09 418.9 53.92 L418.9 53.92 L418.9 41.38 L412.93 41.38 L412.93 53.92 Q413.59 54.12 413.98 54.32 Q414.38 54.52 414.74 54.71 L414.74 54.71 M435.04 56 L428.04 41.58 Q427.55 41.45 427.13 41.25 Q426.72 41.05 426.29 40.79 L426.29 40.79 L426.29 39.5 L434.97 39.5 L434.97 40.75 Q434.28 41.22 433.09 41.58 L433.09 41.58 L436.42 49.86 L436.98 51.97 L437.05 51.97 L437.58 49.83 L440.15 41.58 Q439.16 41.38 438.34 40.79 L438.34 40.79 L438.34 39.5 L444.71 39.5 L444.71 40.79 Q444.01 41.25 442.82 41.58 L442.82 41.58 L437.45 56 Q436.65 58.11 435.86 59.45 Q435.07 60.78 434.28 61.58 Q433.49 62.37 432.69 62.68 Q431.9 63 431.11 63.09 L431.11 63.09 Q430.78 62.8 430.52 62.35 Q430.25 61.91 430.05 61.4 Q429.86 60.88 429.72 60.36 Q429.59 59.83 429.56 59.37 L429.56 59.37 L429.99 58.57 L434.01 58.57 Q434.31 58.11 434.52 57.58 Q434.74 57.06 435.04 56 L435.04 56 M458.37 54.71 L458.37 56 L449 56 L449 54.71 Q449.49 54.45 450.12 54.25 Q450.74 54.05 451.31 53.92 L451.31 53.92 L451.31 41.38 L448.9 41.38 L447.44 45.94 L446.06 45.94 Q445.89 45.24 445.74 44.38 Q445.6 43.53 445.5 42.65 Q445.4 41.78 445.32 40.95 Q445.23 40.13 445.23 39.5 L445.23 39.5 L462.13 39.5 Q462.13 40.09 462.06 40.92 Q462 41.74 461.88 42.62 Q461.77 43.49 461.62 44.37 Q461.47 45.24 461.3 45.94 L461.3 45.94 L459.92 45.94 L458.47 41.38 L456.06 41.38 L456.06 53.92 Q456.82 54.12 457.34 54.28 Q457.87 54.45 458.37 54.71 L458.37 54.71 M463.58 40.79 L463.58 39.5 L472.36 39.5 L472.36 40.79 Q472 40.98 471.52 41.18 Q471.04 41.38 470.38 41.58 L470.38 41.58 L470.38 49 L470.02 52.07 L470.18 52.07 L471.47 49.6 L477.51 39.5 L483.74 39.5 L483.74 40.79 Q482.69 41.38 481.57 41.58 L481.57 41.58 L481.57 53.92 Q482.19 54.09 482.75 54.27 Q483.32 54.45 483.74 54.71 L483.74 54.71 L483.74 56 L474.97 56 L474.97 54.71 Q475.89 54.19 476.95 53.92 L476.95 53.92 L476.95 46.13 L477.28 43.53 L477.11 43.53 L475.86 46 L469.88 56 L463.58 56 L463.58 54.71 Q464.14 54.45 464.67 54.27 Q465.2 54.09 465.76 53.92 L465.76 53.92 L465.76 41.58 Q464.47 41.38 463.58 40.79 L463.58 40.79 M486.78 53.66 L486.78 53.66 Q486.78 52.47 487.54 51.74 Q488.3 51.02 489.55 51.02 L489.55 51.02 Q490.81 51.02 491.6 51.74 Q492.39 52.47 492.39 53.66 L492.39 53.66 Q492.39 54.84 491.6 55.55 Q490.81 56.26 489.55 56.26 L489.55 56.26 Q488.3 56.26 487.54 55.55 Q486.78 54.84 486.78 53.66"/></g><g aria-label="2025-09-13 — 2026-09-19" fill="#EDF2FA99" opacity="1"><path d="M48.68 93.99 L37.2 93.99 L37.21 92.07 L44.88 85.17 Q45.84 84.3 46.17 83.53 Q46.5 82.76 46.5 81.94 L46.5 81.94 Q46.5 80.94 46.04 80.14 Q45.59 79.34 44.8 78.87 Q44.02 78.4 43.02 78.4 L43.02 78.4 Q41.99 78.4 41.18 78.89 Q40.38 79.37 39.92 80.18 Q39.46 80.98 39.47 81.93 L39.47 81.93 L37.28 81.93 Q37.28 80.3 38.04 79.04 Q38.8 77.79 40.1 77.07 Q41.4 76.36 43.06 76.36 L43.06 76.36 Q44.66 76.36 45.94 77.1 Q47.21 77.84 47.95 79.1 Q48.68 80.37 48.68 81.96 L48.68 81.96 Q48.68 83.09 48.4 83.92 Q48.12 84.75 47.53 85.45 Q46.94 86.15 46.06 86.94 L46.06 86.94 L40.49 91.95 L48.68 91.95 L48.68 93.99 M57.4 94.36 L57.4 94.36 Q55.72 94.36 54.4 93.6 Q53.09 92.84 52.33 91.52 Q51.56 90.21 51.56 88.53 L51.56 88.53 L51.56 82.19 Q51.56 80.51 52.33 79.19 Q53.09 77.87 54.4 77.12 Q55.72 76.36 57.4 76.36 L57.4 76.36 Q59.08 76.36 60.4 77.12 Q61.72 77.87 62.47 79.19 Q63.23 80.51 63.23 82.19 L63.23 82.19 L63.23 88.53 Q63.23 90.21 62.47 91.52 Q61.72 92.84 60.4 93.6 Q59.08 94.36 57.4 94.36 M57.4 92.31 L57.4 92.31 Q58.42 92.31 59.24 91.82 Q60.07 91.32 60.56 90.49 Q61.06 89.66 61.06 88.65 L61.06 88.65 L61.06 82.06 Q61.06 81.04 60.56 80.21 Q60.07 79.38 59.24 78.89 Q58.42 78.4 57.4 78.4 L57.4 78.4 Q56.39 78.4 55.55 78.89 Q54.72 79.38 54.23 80.21 Q53.74 81.04 53.74 82.06 L53.74 82.06 L53.74 88.65 Q53.74 89.66 54.23 90.49 Q54.72 91.32 55.55 91.82 Q56.39 92.31 57.4 92.31 M77.59 93.99 L66.11 93.99 L66.12 92.07 L73.79 85.17 Q74.75 84.3 75.08 83.53 Q75.41 82.76 75.41 81.94 L75.41 81.94 Q75.41 80.94 74.95 80.14 Q74.5 79.34 73.71 78.87 Q72.92 78.4 71.93 78.4 L71.93 78.4 Q70.9 78.4 70.09 78.89 Q69.29 79.37 68.83 80.18 Q68.36 80.98 68.38 81.93 L68.38 81.93 L66.19 81.93 Q66.19 80.3 66.95 79.04 Q67.7 77.79 69.01 77.07 Q70.31 76.36 71.96 76.36 L71.96 76.36 Q73.57 76.36 74.84 77.1 Q76.12 77.84 76.85 79.1 Q77.59 80.37 77.59 81.96 L77.59 81.96 Q77.59 83.09 77.31 83.92 Q77.03 84.75 76.44 85.45 Q75.85 86.15 74.96 86.94 L74.96 86.94 L69.4 91.95 L77.59 91.95 L77.59 93.99 M85.58 94.36 L85.58 94.36 Q84.25 94.36 83.11 93.81 Q81.96 93.26 81.15 92.29 Q80.34 91.32 79.99 90.06 L79.99 90.06 L82.04 89.51 Q82.26 90.36 82.81 90.98 Q83.36 91.6 84.1 91.94 Q84.84 92.28 85.64 92.28 L85.64 92.28 Q86.7 92.28 87.55 91.77 Q88.39 91.26 88.88 90.42 Q89.38 89.57 89.38 88.56 L89.38 88.56 Q89.38 87.52 88.87 86.67 Q88.36 85.83 87.5 85.34 Q86.65 84.84 85.64 84.84 L85.64 84.84 Q84.5 84.84 83.69 85.32 Q82.88 85.79 82.42 86.48 L82.42 86.48 L80.52 85.76 L81.05 76.72 L90.32 76.72 L90.32 78.75 L82.97 78.75 L82.66 83.99 Q83.18 83.57 83.84 83.3 L83.84 83.3 Q84.84 82.88 85.88 82.88 L85.88 82.88 Q87.49 82.88 88.76 83.63 Q90.04 84.38 90.78 85.67 Q91.52 86.96 91.52 88.56 L91.52 88.56 Q91.52 90.16 90.71 91.47 Q89.89 92.79 88.54 93.57 Q87.19 94.36 85.58 94.36 M101.36 87.32 L94.16 87.32 L94.16 85.55 L101.36 85.55 L101.36 87.32 M110.32 94.36 L110.32 94.36 Q108.64 94.36 107.32 93.6 Q106.01 92.84 105.25 91.52 Q104.48 90.21 104.48 88.53 L104.48 88.53 L104.48 82.19 Q104.48 80.51 105.25 79.19 Q106.01 77.87 107.32 77.12 Q108.64 76.36 110.32 76.36 L110.32 76.36 Q112 76.36 113.32 77.12 Q114.64 77.87 115.39 79.19 Q116.15 80.51 116.15 82.19 L116.15 82.19 L116.15 88.53 Q116.15 90.21 115.39 91.52 Q114.64 92.84 113.32 93.6 Q112 94.36 110.32 94.36 M110.32 92.31 L110.32 92.31 Q111.34 92.31 112.16 91.82 Q112.99 91.32 113.48 90.49 Q113.98 89.66 113.98 88.65 L113.98 88.65 L113.98 82.06 Q113.98 81.04 113.48 80.21 Q112.99 79.38 112.16 78.89 Q111.34 78.4 110.32 78.4 L110.32 78.4 Q109.31 78.4 108.47 78.89 Q107.64 79.38 107.15 80.21 Q106.66 81.04 106.66 82.06 L106.66 82.06 L106.66 88.65 Q106.66 89.66 107.15 90.49 Q107.64 91.32 108.47 91.82 Q109.31 92.31 110.32 92.31 M125.16 76.37 L125.16 76.37 Q126.82 76.37 128.15 77.16 Q129.48 77.96 130.27 79.32 Q131.05 80.69 131.05 82.43 L131.05 82.43 L131.05 88.18 Q131.05 89.99 130.27 91.38 Q129.49 92.78 128.12 93.57 Q126.74 94.36 124.97 94.36 L124.97 94.36 Q123.55 94.36 122.32 93.77 Q121.09 93.18 120.24 92.1 L120.24 92.1 L121.84 90.69 Q122.36 91.43 123.19 91.88 Q124.02 92.33 124.97 92.33 L124.97 92.33 Q126.12 92.33 127 91.78 Q127.88 91.23 128.38 90.34 Q128.88 89.45 128.88 88.42 L128.88 88.42 L128.88 86.07 Q128.27 86.75 127.44 87.21 L127.44 87.21 Q126.28 87.86 124.91 87.86 L124.91 87.86 Q123.3 87.86 122.03 87.1 Q120.76 86.34 120.01 85.05 Q119.27 83.76 119.27 82.16 Q119.27 80.55 120.07 79.23 Q120.88 77.92 122.21 77.15 Q123.55 76.37 125.16 76.37 M125.16 78.44 L125.16 78.44 Q124.13 78.44 123.28 78.93 Q122.44 79.43 121.93 80.28 Q121.43 81.12 121.43 82.16 Q121.43 83.19 121.93 84.03 Q122.42 84.88 123.27 85.38 Q124.12 85.89 125.15 85.89 Q126.18 85.89 127.03 85.38 Q127.88 84.88 128.38 84.03 Q128.88 83.19 128.88 82.16 L128.88 82.16 Q128.88 81.14 128.38 80.29 Q127.88 79.44 127.04 78.94 Q126.19 78.44 125.16 78.44 M141.37 87.32 L134.17 87.32 L134.17 85.55 L141.37 85.55 L141.37 87.32 M149.68 94 L147.5 94 L147.5 79.08 L144.25 81.05 L144.25 78.66 L147.5 76.72 L149.68 76.72 L149.68 94 M158.98 94.34 L158.98 94.34 Q157.69 94.34 156.59 93.86 Q155.48 93.39 154.69 92.52 Q153.89 91.65 153.52 90.45 L153.52 90.45 L155.57 89.86 Q155.96 91.06 156.89 91.68 Q157.81 92.31 158.96 92.3 L158.96 92.3 Q160.02 92.27 160.79 91.81 Q161.57 91.35 161.99 90.54 Q162.42 89.74 162.42 88.68 L162.42 88.68 Q162.42 87.08 161.46 86.07 Q160.5 85.07 158.94 85.07 L158.94 85.07 Q158.51 85.07 158.03 85.19 Q157.56 85.31 157.15 85.53 L157.15 85.53 L156.12 83.84 L161.74 78.76 L154.2 78.76 L154.2 76.72 L164.39 76.72 L164.39 78.77 L159.73 83.24 Q160.94 83.3 161.9 83.81 L161.9 83.81 Q163.19 84.5 163.9 85.77 Q164.62 87.04 164.62 88.68 L164.62 88.68 Q164.62 90.34 163.87 91.61 Q163.13 92.88 161.86 93.61 Q160.58 94.34 158.98 94.34  M188.14 87.32 L172.3 87.32 L172.3 85.55 L188.14 85.55 L188.14 87.32  M207.06 93.99 L195.58 93.99 L195.59 92.07 L203.26 85.17 Q204.22 84.3 204.55 83.53 Q204.88 82.76 204.88 81.94 L204.88 81.94 Q204.88 80.94 204.42 80.14 Q203.96 79.34 203.18 78.87 Q202.39 78.4 201.4 78.4 L201.4 78.4 Q200.36 78.4 199.56 78.89 Q198.76 79.37 198.29 80.18 Q197.83 80.98 197.84 81.93 L197.84 81.93 L195.66 81.93 Q195.66 80.3 196.42 79.04 Q197.17 77.79 198.47 77.07 Q199.78 76.36 201.43 76.36 L201.43 76.36 Q203.04 76.36 204.31 77.1 Q205.58 77.84 206.32 79.1 Q207.06 80.37 207.06 81.96 L207.06 81.96 Q207.06 83.09 206.78 83.92 Q206.5 84.75 205.91 85.45 Q205.32 86.15 204.43 86.94 L204.43 86.94 L198.86 91.95 L207.06 91.95 L207.06 93.99 M215.77 94.36 L215.77 94.36 Q214.09 94.36 212.78 93.6 Q211.46 92.84 210.7 91.52 Q209.94 90.21 209.94 88.53 L209.94 88.53 L209.94 82.19 Q209.94 80.51 210.7 79.19 Q211.46 77.87 212.78 77.12 Q214.09 76.36 215.77 76.36 L215.77 76.36 Q217.45 76.36 218.77 77.12 Q220.09 77.87 220.85 79.19 Q221.6 80.51 221.6 82.19 L221.6 82.19 L221.6 88.53 Q221.6 90.21 220.85 91.52 Q220.09 92.84 218.77 93.6 Q217.45 94.36 215.77 94.36 M215.77 92.31 L215.77 92.31 Q216.79 92.31 217.62 91.82 Q218.45 91.32 218.94 90.49 Q219.43 89.66 219.43 88.65 L219.43 88.65 L219.43 82.06 Q219.43 81.04 218.94 80.21 Q218.45 79.38 217.62 78.89 Q216.79 78.4 215.77 78.4 L215.77 78.4 Q214.76 78.4 213.93 78.89 Q213.1 79.38 212.6 80.21 Q212.11 81.04 212.11 82.06 L212.11 82.06 L212.11 88.65 Q212.11 89.66 212.6 90.49 Q213.1 91.32 213.93 91.82 Q214.76 92.31 215.77 92.31 M235.97 93.99 L224.48 93.99 L224.5 92.07 L232.16 85.17 Q233.12 84.3 233.45 83.53 Q233.78 82.76 233.78 81.94 L233.78 81.94 Q233.78 80.94 233.33 80.14 Q232.87 79.34 232.09 78.87 Q231.3 78.4 230.3 78.4 L230.3 78.4 Q229.27 78.4 228.47 78.89 Q227.66 79.37 227.2 80.18 Q226.74 80.98 226.75 81.93 L226.75 81.93 L224.57 81.93 Q224.57 80.3 225.32 79.04 Q226.08 77.79 227.38 77.07 Q228.68 76.36 230.34 76.36 L230.34 76.36 Q231.95 76.36 233.22 77.1 Q234.49 77.84 235.23 79.1 Q235.97 80.37 235.97 81.96 L235.97 81.96 Q235.97 83.09 235.69 83.92 Q235.4 84.75 234.82 85.45 Q234.23 86.15 233.34 86.94 L233.34 86.94 L227.77 91.95 L235.97 91.95 L235.97 93.99 M244.74 94.36 L244.74 94.36 Q243.1 94.36 241.76 93.57 Q240.42 92.78 239.63 91.4 Q238.85 90.03 238.85 88.3 L238.85 88.3 L238.85 82.55 Q238.85 80.74 239.63 79.34 Q240.42 77.94 241.79 77.16 Q243.17 76.37 244.93 76.37 L244.93 76.37 Q246.36 76.37 247.59 76.95 Q248.82 77.54 249.66 78.63 L249.66 78.63 L248.06 80.04 Q247.55 79.29 246.72 78.84 Q245.89 78.4 244.93 78.4 L244.93 78.4 Q243.79 78.4 242.91 78.95 Q242.03 79.49 241.52 80.39 Q241.02 81.28 241.02 82.31 L241.02 82.31 L241.02 84.66 Q241.64 83.98 242.47 83.52 L242.47 83.52 Q243.64 82.88 244.99 82.88 L244.99 82.88 Q246.6 82.88 247.88 83.63 Q249.16 84.39 249.89 85.68 Q250.63 86.97 250.63 88.58 Q250.63 90.18 249.83 91.49 Q249.02 92.8 247.69 93.58 Q246.35 94.36 244.74 94.36 M244.74 92.3 L244.74 92.3 Q245.77 92.3 246.62 91.8 Q247.48 91.3 247.97 90.45 Q248.47 89.61 248.47 88.58 Q248.47 87.54 247.97 86.69 Q247.48 85.84 246.63 85.34 Q245.78 84.84 244.75 84.84 Q243.72 84.84 242.87 85.34 Q242.03 85.84 241.52 86.69 Q241.02 87.54 241.02 88.58 L241.02 88.58 Q241.02 89.6 241.52 90.44 Q242.02 91.29 242.86 91.79 Q243.71 92.3 244.74 92.3 M260.71 87.32 L253.51 87.32 L253.51 85.55 L260.71 85.55 L260.71 87.32 M269.66 94.36 L269.66 94.36 Q267.98 94.36 266.67 93.6 Q265.36 92.84 264.59 91.52 Q263.83 90.21 263.83 88.53 L263.83 88.53 L263.83 82.19 Q263.83 80.51 264.59 79.19 Q265.36 77.87 266.67 77.12 Q267.98 76.36 269.66 76.36 L269.66 76.36 Q271.34 76.36 272.66 77.12 Q273.98 77.87 274.74 79.19 Q275.5 80.51 275.5 82.19 L275.5 82.19 L275.5 88.53 Q275.5 90.21 274.74 91.52 Q273.98 92.84 272.66 93.6 Q271.34 94.36 269.66 94.36 M269.66 92.31 L269.66 92.31 Q270.68 92.31 271.51 91.82 Q272.34 91.32 272.83 90.49 Q273.32 89.66 273.32 88.65 L273.32 88.65 L273.32 82.06 Q273.32 81.04 272.83 80.21 Q272.34 79.38 271.51 78.89 Q270.68 78.4 269.66 78.4 L269.66 78.4 Q268.66 78.4 267.82 78.89 Q266.99 79.38 266.5 80.21 Q266 81.04 266 82.06 L266 82.06 L266 88.65 Q266 89.66 266.5 90.49 Q266.99 91.32 267.82 91.82 Q268.66 92.31 269.66 92.31 M284.51 76.37 L284.51 76.37 Q286.16 76.37 287.5 77.16 Q288.83 77.96 289.61 79.32 Q290.4 80.69 290.4 82.43 L290.4 82.43 L290.4 88.18 Q290.4 89.99 289.62 91.38 Q288.84 92.78 287.47 93.57 Q286.09 94.36 284.32 94.36 L284.32 94.36 Q282.9 94.36 281.67 93.77 Q280.44 93.18 279.59 92.1 L279.59 92.1 L281.18 90.69 Q281.71 91.43 282.54 91.88 Q283.37 92.33 284.32 92.33 L284.32 92.33 Q285.47 92.33 286.35 91.78 Q287.23 91.23 287.73 90.34 Q288.23 89.45 288.23 88.42 L288.23 88.42 L288.23 86.07 Q287.62 86.75 286.79 87.21 L286.79 87.21 Q285.62 87.86 284.26 87.86 L284.26 87.86 Q282.65 87.86 281.38 87.1 Q280.1 86.34 279.36 85.05 Q278.62 83.76 278.62 82.16 Q278.62 80.55 279.42 79.23 Q280.22 77.92 281.56 77.15 Q282.9 76.37 284.51 76.37 M284.51 78.44 L284.51 78.44 Q283.48 78.44 282.63 78.93 Q281.78 79.43 281.28 80.28 Q280.78 81.12 280.78 82.16 Q280.78 83.19 281.27 84.03 Q281.77 84.88 282.62 85.38 Q283.46 85.89 284.5 85.89 Q285.53 85.89 286.38 85.38 Q287.23 84.88 287.73 84.03 Q288.23 83.19 288.23 82.16 L288.23 82.16 Q288.23 81.14 287.73 80.29 Q287.23 79.44 286.39 78.94 Q285.54 78.44 284.51 78.44 M300.72 87.32 L293.52 87.32 L293.52 85.55 L300.72 85.55 L300.72 87.32 M309.02 94 L306.85 94 L306.85 79.08 L303.6 81.05 L303.6 78.66 L306.85 76.72 L309.02 76.72 L309.02 94 M319.24 76.37 L319.24 76.37 Q320.89 76.37 322.22 77.16 Q323.56 77.96 324.34 79.32 Q325.13 80.69 325.13 82.43 L325.13 82.43 L325.13 88.18 Q325.13 89.99 324.35 91.38 Q323.57 92.78 322.19 93.57 Q320.82 94.36 319.04 94.36 L319.04 94.36 Q317.63 94.36 316.4 93.77 Q315.17 93.18 314.32 92.1 L314.32 92.1 L315.91 90.69 Q316.44 91.43 317.27 91.88 Q318.1 92.33 319.04 92.33 L319.04 92.33 Q320.2 92.33 321.08 91.78 Q321.96 91.23 322.46 90.34 Q322.96 89.45 322.96 88.42 L322.96 88.42 L322.96 86.07 Q322.34 86.75 321.52 87.21 L321.52 87.21 Q320.35 87.86 318.98 87.86 L318.98 87.86 Q317.38 87.86 316.1 87.1 Q314.83 86.34 314.09 85.05 Q313.34 83.76 313.34 82.16 Q313.34 80.55 314.15 79.23 Q314.95 77.92 316.29 77.15 Q317.63 76.37 319.24 76.37 M319.24 78.44 L319.24 78.44 Q318.2 78.44 317.36 78.93 Q316.51 79.43 316.01 80.28 Q315.5 81.12 315.5 82.16 Q315.5 83.19 316 84.03 Q316.5 84.88 317.35 85.38 Q318.19 85.89 319.22 85.89 Q320.26 85.89 321.11 85.38 Q321.96 84.88 322.46 84.03 Q322.96 83.19 322.96 82.16 L322.96 82.16 Q322.96 81.14 322.46 80.29 Q321.96 79.44 321.11 78.94 Q320.27 78.44 319.24 78.44"/></g><rect x="36" y="125" width="14" height="14" rx="3" fill="#EDF2FA" fill-opacity="0.055"><title>2025-09-14: 0</title></rect><rect x="36" y="144" width="14" height="14" rx="3" fill="#EDF2FA" fill-opacity="0.055"><title>2025-09-15: 0</title></rect><rect x="36" y="163" width="14" height="14" rx="3" fill="#EDF2FA" fill-opacity="0.055"><title>2025-09-16: 0</title></rect><rect x="36" y="182" width="14" height="14" rx="3" fill="#EDF2FA" fill-opacity="0.055"><title>2025-09-17: 0</title></rect><rect x="36" y="201" width="14" height="14" rx="3" fill="#EDF2FA" fill-opacity="0.055"><title>2025-09-18: 0</title></rect><rect x="36" y="220" width="14" height="14" rx="3" fill="#EDF2FA" fill-opacity="0.055"><title>2025-09-19: 0</title></rect><rect x="36" y="239" width="14" height="14" rx="3" fill="#EDF2FA" fill-opacity="0.055"><title>2025-09-20: 0</title></rect><rect x="55" y="125" width="14" height="14" rx="3" fill="#EDF2FA" fill-opacity="0.055"><title>2025-09-21: 0</title></rect><rect x="55" y="144" width="14" height="14" rx="3" fill="#EDF2FA" fill-opacity="0.055"><title>2025-09-22: 0</title></rect><rect x="55" y="163" width="14" height="14" rx="3" fill="#EDF2FA" fill-opacity="0.055"><title>2025-09-23: 0</title></rect><rect x="55" y="182" width="14" height="14" rx="3" fill="#EDF2FA" fill-opacity="0.055"><title>2025-09-24: 0</title></rect><rect x="55" y="201" width="14" height="14" rx="3" fill="#EDF2FA" fill-opacity="0.055"><title>2025-09-25: 0</title></rect><rect x="55" y="220" width="14" height="14" rx="3" fill="#EDF2FA" fill-opacity="0.055"><title>2025-09-26: 0</title></rect><rect x="55" y="239" width="14" height="14" rx="3" fill="#EDF2FA" fill-opacity="0.055"><title>2025-09-27: 0</title></rect><rect x="74" y="125" width="14" height="14" rx="3" fill="#EDF2FA" fill-opacity="0.055"><title>2025-09-28: 0</title></rect><rect x="74" y="144" width="14" height="14" rx="3" fill="#EDF2FA" fill-opacity="0.055"><title>2025-09-29: 0</title></rect><rect x="74" y="163" width="14" height="14" rx="3" fill="#EDF2FA" fill-opacity="0.055"><title>2025-09-30: 0</title></rect><rect x="74" y="182" width="14" height="14" rx="3" fill="#EDF2FA" fill-opacity="0.055"><title>2025-10-01: 0</title></rect><rect x="74" y="201" width="14" height="14" rx="3" fill="#EDF2FA" fill-opacity="0.055"><title>2025-10-02: 0</title></rect><rect x="74" y="220" width="14" height="14" rx="3" fill="#EDF2FA" fill-opacity="0.055"><title>2025-10-03: 0</title></rect><rect x="74" y="239" width="14" height="14" rx="3" fill="#EDF2FA" fill-opacity="0.055"><title>2025-10-04: 0</title></rect><rect x="93" y="125" width="14" height="14" rx="3" fill="#EDF2FA" fill-opacity="0.055"><title>2025-10-05: 0</title></rect><rect x="93" y="144" width="14" height="14" rx="3" fill="#EDF2FA" fill-opacity="0.055"><title>2025-10-06: 0</title></rect><rect x="93" y="163" width="14" height="14" rx="3" fill="#EDF2FA" fill-opacity="0.055"><title>2025-10-07: 0</title></rect><rect x="93" y="182" width="14" height="14" rx="3" fill="#EDF2FA" fill-opacity="0.055"><title>2025-10-08: 0</title></rect><rect x="93" y="201" width="14" height="14" rx="3" fill="#EDF2FA" fill-opacity="0.055"><title>2025-10-09: 0</title></rect><rect x="93" y="220" width="14" height="14" rx="3" fill="#EDF2FA" fill-opacity="0.055"><title>2025-10-10: 0</title></rect><rect x="93" y="239" width="14" height="14" rx="3" fill="#EDF2FA" fill-opacity="0.055"><title>2025-10-11: 0</title></rect><rect x="112" y="125" width="14" height="14" rx="3" fill="#EDF2FA" fill-opacity="0.055"><title>2025-10-12: 0</title></rect><rect x="112" y="144" width="14" height="14" rx="3" fill="#EDF2FA" fill-opacity="0.055"><title>2025-10-13: 0</title></rect><rect x="112" y="163" width="14" height="14" rx="3" fill="#EDF2FA" fill-opacity="0.055"><title>2025-10-14: 0</title></rect><rect x="112" y="182" width="14" height="14" rx="3" fill="#EDF2FA" fill-opacity="0.055"><title>2025-10-15: 0</title></rect><rect x="112" y="201" width="14" height="14" rx="3" fill="#EDF2FA" fill-opacity="0.055"><title>2025-10-16: 0</title></rect><rect x="112" y="220" width="14" height="14" rx="3" fill="#EDF2FA" fill-opacity="0.055"><title>2025-10-17: 0</title></rect><rect x="112" y="239" width="14" height="14" rx="3" fill="#EDF2FA" fill-opacity="0.055"><title>2025-10-18: 0</title></rect><rect x="131" y="125" width="14" height="14" rx="3" fill="#EDF2FA" fill-opacity="0.055"><title>2025-10-19: 0</title></rect><rect x="131" y="144" width="14" height="14" rx="3" fill="#EDF2FA" fill-opacity="0.055"><title>2025-10-20: 0</title></rect><rect x="131" y="163" width="14" height="14" rx="3" fill="#EDF2FA" fill-opacity="0.055"><title>2025-10-21: 0</title></rect><rect x="131" y="182" width="14" height="14" rx="3" fill="#EDF2FA" fill-opacity="0.055"><title>2025-10-22: 0</title></rect><rect x="131" y="201" width="14" height="14" rx="3" fill="#EDF2FA" fill-opacity="0.055"><title>2025-10-23: 0</title></rect><rect x="131" y="220" width="14" height="14" rx="3" fill="#EDF2FA" fill-opacity="0.055"><title>2025-10-24: 0</title></rect><rect x="131" y="239" width="14" height="14" rx="3" fill="#EDF2FA" fill-opacity="0.055"><title>2025-10-25: 0</title></rect><rect x="150" y="125" width="14" height="14" rx="3" fill="#EDF2FA" fill-opacity="0.055"><title>2025-10-26: 0</title></rect><rect x="150" y="144" width="14" height="14" rx="3" fill="#EDF2FA" fill-opacity="0.055"><title>2025-10-27: 0</title></rect><rect x="150" y="163" width="14" height="14" rx="3" fill="#EDF2FA" fill-opacity="0.055"><title>2025-10-28: 0</title></rect><rect x="150" y="182" width="14" height="14" rx="3" fill="#EDF2FA" fill-opacity="0.055"><title>2025-10-29: 0</title></rect><rect x="150" y="201" width="14" height="14" rx="3" fill="#EDF2FA" fill-opacity="0.055"><title>2025-10-30: 0</title></rect><rect x="150" y="220" width="14" height="14" rx="3" fill="#EDF2FA" fill-opacity="0.055"><title>2025-10-31: 0</title></rect><rect x="150" y="239" width="14" height="14" rx="3" fill="#EDF2FA" fill-opacity="0.055"><title>2025-11-01: 0</title></rect><rect x="169" y="125" width="14" height="14" rx="3" fill="#EDF2FA" fill-opacity="0.055"><title>2025-11-02: 0</title></rect><rect x="169" y="144" width="14" height="14" rx="3" fill="#EDF2FA" fill-opacity="0.055"><title>2025-11-03: 0</title></rect><rect x="169" y="163" width="14" height="14" rx="3" fill="#EDF2FA" fill-opacity="0.055"><title>2025-11-04: 0</title></rect><rect x="169" y="182" width="14" height="14" rx="3" fill="#EDF2FA" fill-opacity="0.055"><title>2025-11-05: 0</title></rect><rect x="169" y="201" width="14" height="14" rx="3" fill="#EDF2FA" fill-opacity="0.055"><title>2025-11-06: 0</title></rect><rect x="169" y="220" width="14" height="14" rx="3" fill="#EDF2FA" fill-opacity="0.055"><title>2025-11-07: 0</title></rect><rect x="169" y="239" width="14" height="14" rx="3" fill="#EDF2FA" fill-opacity="0.055"><title>2025-11-08: 0</title></rect><rect x="188" y="125" width="14" height="14" rx="3" fill="#EDF2FA" fill-opacity="0.055"><title>2025-11-09: 0</title></rect><rect x="188" y="144" width="14" height="14" rx="3" fill="#EDF2FA" fill-opacity="0.055"><title>2025-11-10: 0</title></rect><rect x="188" y="163" width="14" height="14" rx="3" fill="#EDF2FA" fill-opacity="0.055"><title>2025-11-11: 0</title></rect><rect x="188" y="182" width="14" height="14" rx="3" fill="#EDF2FA" fill-opacity="0.055"><title>2025-11-12: 0</title></rect><rect x="188" y="201" width="14" height="14" rx="3" fill="#EDF2FA" fill-opacity="0.055"><title>2025-11-13: 0</title></rect><rect x="188" y="220" width="14" height="14" rx="3" fill="#EDF2FA" fill-opacity="0.055"><title>2025-11-14: 0</title></rect><rect x="188" y="239" width="14" height="14" rx="3" fill="#EDF2FA" fill-opacity="0.055"><title>2025-11-15: 0</title></rect><rect x="207" y="125" width="14" height="14" rx="3" fill="#EDF2FA" fill-opacity="0.055"><title>2025-11-16: 0</title></rect><rect x="207" y="144" width="14" height="14" rx="3" fill="#EDF2FA" fill-opacity="0.055"><title>2025-11-17: 0</title></rect><rect x="207" y="163" width="14" height="14" rx="3" fill="#EDF2FA" fill-opacity="0.055"><title>2025-11-18: 0</title></rect><rect x="207" y="182" width="14" height="14" rx="3" fill="#EDF2FA" fill-opacity="0.055"><title>2025-11-19: 0</title></rect><rect x="207" y="201" width="14" height="14" rx="3" fill="#EDF2FA" fill-opacity="0.055"><title>2025-11-20: 0</title></rect><rect x="207" y="220" width="14" height="14" rx="3" fill="#EDF2FA" fill-opacity="0.055"><title>2025-11-21: 0</title></rect><rect x="207" y="239" width="14" height="14" rx="3" fill="#EDF2FA" fill-opacity="0.055"><title>2025-11-22: 0</title></rect><rect x="226" y="125" width="14" height="14" rx="3" fill="#EDF2FA" fill-opacity="0.055"><title>2025-11-23: 0</title></rect><rect x="226" y="144" width="14" height="14" rx="3" fill="#EDF2FA" fill-opacity="0.055"><title>2025-11-24: 0</title></rect><rect x="226" y="163" width="14" height="14" rx="3" fill="#EDF2FA" fill-opacity="0.055"><title>2025-11-25: 0</title></rect><rect x="226" y="182" width="14" height="14" rx="3" fill="#EDF2FA" fill-opacity="0.055"><title>2025-11-26: 0</title></rect><rect x="226" y="201" width="14" height="14" rx="3" fill="#EDF2FA" fill-opacity="0.055"><title>2025-11-27: 0</title></rect><rect x="226" y="220" width="14" height="14" rx="3" fill="#EDF2FA" fill-opacity="0.055"><title>2025-11-28: 0</title></rect><rect x="226" y="239" width="14" height="14" rx="3" fill="#EDF2FA" fill-opacity="0.055"><title>2025-11-29: 0</title></rect><rect x="245" y="125" width="14" height="14" rx="3" fill="#EDF2FA" fill-opacity="0.055"><title>2025-11-30: 0</title></rect><rect x="245" y="144" width="14" height="14" rx="3" fill="#EDF2FA" fill-opacity="0.055"><title>2025-12-01: 0</title></rect><rect x="245" y="163" width="14" height="14" rx="3" fill="#EDF2FA" fill-opacity="0.055"><title>2025-12-02: 0</title></rect><rect x="245" y="182" width="14" height="14" rx="3" fill="#EDF2FA" fill-opacity="0.055"><title>2025-12-03: 0</title></rect><rect x="245" y="201" width="14" height="14" rx="3" fill="#EDF2FA" fill-opacity="0.055"><title>2025-12-04: 0</title></rect><rect x="245" y="220" width="14" height="14" rx="3" fill="#EDF2FA" fill-opacity="0.055"><title>2025-12-05: 0</title></rect><rect x="245" y="239" width="14" height="14" rx="3" fill="#EDF2FA" fill-opacity="0.055"><title>2025-12-06: 0</title></rect><rect x="264" y="125" width="14" height="14" rx="3" fill="#EDF2FA" fill-opacity="0.055"><title>2025-12-07: 0</title></rect><rect x="264" y="144" width="14" height="14" rx="3" fill="#EDF2FA" fill-opacity="0.055"><title>2025-12-08: 0</title></rect><rect x="264" y="163" width="14" height="14" rx="3" fill="#EDF2FA" fill-opacity="0.055"><title>2025-12-09: 0</title></rect><rect x="264" y="182" width="14" height="14" rx="3" fill="#EDF2FA" fill-opacity="0.055"><title>2025-12-10: 0</title></rect><rect x="264" y="201" width="14" height="14" rx="3" fill="#EDF2FA" fill-opacity="0.055"><title>2025-12-11: 0</title></rect><rect x="264" y="220" width="14" height="14" rx="3" fill="#EDF2FA" fill-opacity="0.055"><title>2025-12-12: 0</title></rect><rect x="264" y="239" width="14" height="14" rx="3" fill="#EDF2FA" fill-opacity="0.055"><title>2025-12-13: 0</title></rect><rect x="283" y="125" width="14" height="14" rx="3" fill="#EDF2FA" fill-opacity="0.055"><title>2025-12-14: 0</title></rect><rect x="283" y="144" width="14" height="14" rx="3" fill="#EDF2FA" fill-opacity="0.055"><title>2025-12-15: 0</title></rect><rect x="283" y="163" width="14" height="14" rx="3" fill="#EDF2FA" fill-opacity="0.055"><title>2025-12-16: 0</title></rect><rect x="283" y="182" width="14" height="14" rx="3" fill="#EDF2FA" fill-opacity="0.055"><title>2025-12-17: 0</title></rect><rect x="283" y="201" width="14" height="14" rx="3" fill="#EDF2FA" fill-opacity="0.055"><title>2025-12-18: 0</title></rect><rect x="283" y="220" width="14" height="14" rx="3" fill="#EDF2FA" fill-opacity="0.055"><title>2025-12-19: 0</title></rect><rect x="283" y="239" width="14" height="14" rx="3" fill="#EDF2FA" fill-opacity="0.055"><title>2025-12-20: 0</title></rect><rect x="302" y="125" width="14" height="14" rx="3" fill="#EDF2FA" fill-opacity="0.055"><title>2025-12-21: 0</title></rect><rect x="302" y="144" width="14" height="14" rx="3" fill="#EDF2FA" fill-opacity="0.055"><title>2025-12-22: 0</title></rect><rect x="302" y="163" width="14" height="14" rx="3" fill="#EDF2FA" fill-opacity="0.055"><title>2025-12-23: 0</title></rect><rect x="302" y="182" width="14" height="14" rx="3" fill="#EDF2FA" fill-opacity="0.055"><title>2025-12-24: 0</title></rect><rect x="302" y="201" width="14" height="14" rx="3" fill="#EDF2FA" fill-opacity="0.055"><title>2025-12-25: 0</title></rect><rect x="302" y="220" width="14" height="14" rx="3" fill="#EDF2FA" fill-opacity="0.055"><title>2025-12-26: 0</title></rect><rect x="302" y="239" width="14" height="14" rx="3" fill="#EDF2FA" fill-opacity="0.055"><title>2025-12-27: 0</title></rect><rect x="321" y="125" width="14" height="14" rx="3" fill="#EDF2FA" fill-opacity="0.055"><title>2025-12-28: 0</title></rect><rect x="321" y="144" width="14" height="14" rx="3" fill="#EDF2FA" fill-opacity="0.055"><title>2025-12-29: 0</title></rect><rect x="321" y="163" width="14" height="14" rx="3" fill="#EDF2FA" fill-opacity="0.055"><title>2025-12-30: 0</title></rect><rect x="321" y="182" width="14" height="14" rx="3" fill="#EDF2FA" fill-opacity="0.055"><title>2025-12-31: 0</title></rect><rect x="321" y="201" width="14" height="14" rx="3" fill="#EDF2FA" fill-opacity="0.055"><title>2026-01-01: 0</title></rect><rect x="321" y="220" width="14" height="14" rx="3" fill="#EDF2FA" fill-opacity="0.055"><title>2026-01-02: 0</title></rect><rect x="321" y="239" width="14" height="14" rx="3" fill="#EDF2FA" fill-opacity="0.055"><title>2026-01-03: 0</title></rect><rect x="340" y="125" width="14" height="14" rx="3" fill="#EDF2FA" fill-opacity="0.055"><title>2026-01-04: 0</title></rect><rect x="340" y="144" width="14" height="14" rx="3" fill="#EDF2FA" fill-opacity="0.055"><title>2026-01-05: 0</title></rect><rect x="340" y="163" width="14" height="14" rx="3" fill="#EDF2FA" fill-opacity="0.055"><title>2026-01-06: 0</title></rect><rect x="340" y="182" width="14" height="14" rx="3" fill="#EDF2FA" fill-opacity="0.055"><title>2026-01-07: 0</title></rect><rect x="340" y="201" width="14" height="14" rx="3" fill="#EDF2FA" fill-opacity="0.055"><title>2026-01-08: 0</title></rect><rect x="340" y="220" width="14" height="14" rx="3" fill="#EDF2FA" fill-opacity="0.055"><title>2026-01-09: 0</title></rect><rect x="340" y="239" width="14" height="14" rx="3" fill="#EDF2FA" fill-opacity="0.055"><title>2026-01-10: 0</title></rect><rect x="359" y="125" width="14" height="14" rx="3" fill="#EDF2FA" fill-opacity="0.055"><title>2026-01-11: 0</title></rect><rect x="359" y="144" width="14" height="14" rx="3" fill="#EDF2FA" fill-opacity="0.055"><title>2026-01-12: 0</title></rect><rect x="359" y="163" width="14" height="14" rx="3" fill="#EDF2FA" fill-opacity="0.055"><title>2026-01-13: 0</title></rect><rect x="359" y="182" width="14" height="14" rx="3" fill="#EDF2FA" fill-opacity="0.055"><title>2026-01-14: 0</title></rect><rect x="359" y="201" width="14" height="14" rx="3" fill="#EDF2FA" fill-opacity="0.055"><title>2026-01-15: 0</title></rect><rect x="359" y="220" width="14" height="14" rx="3" fill="#EDF2FA" fill-opacity="0.055"><title>2026-01-16: 0</title></rect><rect x="359" y="239" width="14" height="14" rx="3" fill="#EDF2FA" fill-opacity="0.055"><title>2026-01-17: 0</title></rect><rect x="378" y="125" width="14" height="14" rx="3" fill="#EDF2FA" fill-opacity="0.055"><title>2026-01-18: 0</title></rect><rect x="378" y="144" width="14" height="14" rx="3" fill="#EDF2FA" fill-opacity="0.055"><title>2026-01-19: 0</title></rect><rect x="378" y="163" width="14" height="14" rx="3" fill="#EDF2FA" fill-opacity="0.055"><title>2026-01-20: 0</title></rect><rect x="378" y="182" width="14" height="14" rx="3" fill="#EDF2FA" fill-opacity="0.055"><title>2026-01-21: 0</title></rect><rect x="378" y="201" width="14" height="14" rx="3" fill="#EDF2FA" fill-opacity="0.055"><title>2026-01-22: 0</title></rect><rect x="378" y="220" width="14" height="14" rx="3" fill="#EDF2FA" fill-opacity="0.055"><title>2026-01-23: 0</title></rect><rect x="378" y="239" width="14" height="14" rx="3" fill="#D9B55D" fill-opacity="0.396"><title>2026-01-24: 10</title></rect><rect x="397" y="125" width="14" height="14" rx="3" fill="#EDF2FA" fill-opacity="0.055"><title>2026-01-25: 0</title></rect><rect x="397" y="144" width="14" height="14" rx="3" fill="#D9B55D" fill-opacity="0.338"><title>2026-01-26: 4</title></rect><rect x="397" y="163" width="14" height="14" rx="3" fill="#D9B55D" fill-opacity="0.453"><title>2026-01-27: 16</title></rect><rect x="397" y="182" width="14" height="14" rx="3" fill="#EDF2FA" fill-opacity="0.055"><title>2026-01-28: 0</title></rect><rect x="397" y="201" width="14" height="14" rx="3" fill="#EDF2FA" fill-opacity="0.055"><title>2026-01-29: 0</title></rect><rect x="397" y="220" width="14" height="14" rx="3" fill="#EDF2FA" fill-opacity="0.055"><title>2026-01-30: 0</title></rect><rect x="397" y="239" width="14" height="14" rx="3" fill="#EDF2FA" fill-opacity="0.055"><title>2026-01-31: 0</title></rect><rect x="416" y="125" width="14" height="14" rx="3" fill="#EDF2FA" fill-opacity="0.055"><title>2026-02-01: 0</title></rect><rect x="416" y="144" width="14" height="14" rx="3" fill="#D9B55D" fill-opacity="0.607"><title>2026-02-02: 32</title></rect><rect x="416" y="163" width="14" height="14" rx="3" fill="#D9B55D" fill-opacity="0.310"><title>2026-02-03: 1</title></rect><rect x="416" y="182" width="14" height="14" rx="3" fill="#D9B55D" fill-opacity="0.655"><title>2026-02-04: 37</title></rect><rect x="416" y="201" width="14" height="14" rx="3" fill="#D9B55D" fill-opacity="0.751"><title>2026-02-05: 47</title></rect><rect x="416" y="220" width="14" height="14" rx="3" fill="#EDF2FA" fill-opacity="0.055"><title>2026-02-06: 0</title></rect><rect x="416" y="239" width="14" height="14" rx="3" fill="#D9B55D" fill-opacity="0.645"><title>2026-02-07: 36</title></rect><rect x="435" y="125" width="14" height="14" rx="3" fill="#EDF2FA" fill-opacity="0.055"><title>2026-02-08: 0</title></rect><rect x="435" y="144" width="14" height="14" rx="3" fill="#EDF2FA" fill-opacity="0.055"><title>2026-02-09: 0</title></rect><rect x="435" y="163" width="14" height="14" rx="3" fill="#D9B55D" fill-opacity="0.396"><title>2026-02-10: 10</title></rect><rect x="435" y="182" width="14" height="14" rx="3" fill="#D9B55D" fill-opacity="0.367"><title>2026-02-11: 7</title></rect><rect x="435" y="201" width="14" height="14" rx="3" fill="#D9B55D" fill-opacity="0.549"><title>2026-02-12: 26</title></rect><rect x="435" y="220" width="14" height="14" rx="3" fill="#D9B55D" fill-opacity="0.501"><title>2026-02-13: 21</title></rect><rect x="435" y="239" width="14" height="14" rx="3" fill="#D9B55D" fill-opacity="0.329"><title>2026-02-14: 3</title></rect><rect x="454" y="125" width="14" height="14" rx="3" fill="#EDF2FA" fill-opacity="0.055"><title>2026-02-15: 0</title></rect><rect x="454" y="144" width="14" height="14" rx="3" fill="#D9B55D" fill-opacity="0.367"><title>2026-02-16: 7</title></rect><rect x="454" y="163" width="14" height="14" rx="3" fill="#EDF2FA" fill-opacity="0.055"><title>2026-02-17: 0</title></rect><rect x="454" y="182" width="14" height="14" rx="3" fill="#D9B55D" fill-opacity="0.348"><title>2026-02-18: 5</title></rect><rect x="454" y="201" width="14" height="14" rx="3" fill="#D9B55D" fill-opacity="0.329"><title>2026-02-19: 3</title></rect><rect x="454" y="220" width="14" height="14" rx="3" fill="#D9B55D" fill-opacity="0.616"><title>2026-02-20: 33</title></rect><rect x="454" y="239" width="14" height="14" rx="3" fill="#D9B55D" fill-opacity="0.319"><title>2026-02-21: 2</title></rect><rect x="473" y="125" width="14" height="14" rx="3" fill="#EDF2FA" fill-opacity="0.055"><title>2026-02-22: 0</title></rect><rect x="473" y="144" width="14" height="14" rx="3" fill="#D9B55D" fill-opacity="0.310"><title>2026-02-23: 1</title></rect><rect x="473" y="163" width="14" height="14" rx="3" fill="#EDF2FA" fill-opacity="0.055"><title>2026-02-24: 0</title></rect><rect x="473" y="182" width="14" height="14" rx="3" fill="#D9B55D" fill-opacity="0.348"><title>2026-02-25: 5</title></rect><rect x="473" y="201" width="14" height="14" rx="3" fill="#EDF2FA" fill-opacity="0.055"><title>2026-02-26: 0</title></rect><rect x="473" y="220" width="14" height="14" rx="3" fill="#D9B55D" fill-opacity="0.367"><title>2026-02-27: 7</title></rect><rect x="473" y="239" width="14" height="14" rx="3" fill="#D9B55D" fill-opacity="1.000"><title>2026-02-28: 73</title></rect><rect x="492" y="125" width="14" height="14" rx="3" fill="#D9B55D" fill-opacity="0.770"><title>2026-03-01: 49</title></rect><rect x="492" y="144" width="14" height="14" rx="3" fill="#EDF2FA" fill-opacity="0.055"><title>2026-03-02: 0</title></rect><rect x="492" y="163" width="14" height="14" rx="3" fill="#D9B55D" fill-opacity="0.482"><title>2026-03-03: 19</title></rect><rect x="492" y="182" width="14" height="14" rx="3" fill="#D9B55D" fill-opacity="0.358"><title>2026-03-04: 6</title></rect><rect x="492" y="201" width="14" height="14" rx="3" fill="#D9B55D" fill-opacity="0.549"><title>2026-03-05: 26</title></rect><rect x="492" y="220" width="14" height="14" rx="3" fill="#D9B55D" fill-opacity="0.310"><title>2026-03-06: 1</title></rect><rect x="492" y="239" width="14" height="14" rx="3" fill="#EDF2FA" fill-opacity="0.055"><title>2026-03-07: 0</title></rect><rect x="511" y="125" width="14" height="14" rx="3" fill="#EDF2FA" fill-opacity="0.055"><title>2026-03-08: 0</title></rect><rect x="511" y="144" width="14" height="14" rx="3" fill="#EDF2FA" fill-opacity="0.055"><title>2026-03-09: 0</title></rect><rect x="511" y="163" width="14" height="14" rx="3" fill="#D9B55D" fill-opacity="0.319"><title>2026-03-10: 2</title></rect><rect x="511" y="182" width="14" height="14" rx="3" fill="#D9B55D" fill-opacity="0.310"><title>2026-03-11: 1</title></rect><rect x="511" y="201" width="14" height="14" rx="3" fill="#EDF2FA" fill-opacity="0.055"><title>2026-03-12: 0</title></rect><rect x="511" y="220" width="14" height="14" rx="3" fill="#D9B55D" fill-opacity="0.329"><title>2026-03-13: 3</title></rect><rect x="511" y="239" width="14" height="14" rx="3" fill="#EDF2FA" fill-opacity="0.055"><title>2026-03-14: 0</title></rect><rect x="530" y="125" width="14" height="14" rx="3" fill="#EDF2FA" fill-opacity="0.055"><title>2026-03-15: 0</title></rect><rect x="530" y="144" width="14" height="14" rx="3" fill="#EDF2FA" fill-opacity="0.055"><title>2026-03-16: 0</title></rect><rect x="530" y="163" width="14" height="14" rx="3" fill="#EDF2FA" fill-opacity="0.055"><title>2026-03-17: 0</title></rect><rect x="530" y="182" width="14" height="14" rx="3" fill="#EDF2FA" fill-opacity="0.055"><title>2026-03-18: 0</title></rect><rect x="530" y="201" width="14" height="14" rx="3" fill="#EDF2FA" fill-opacity="0.055"><title>2026-03-19: 0</title></rect><rect x="530" y="220" width="14" height="14" rx="3" fill="#EDF2FA" fill-opacity="0.055"><title>2026-03-20: 0</title></rect><rect x="530" y="239" width="14" height="14" rx="3" fill="#EDF2FA" fill-opacity="0.055"><title>2026-03-21: 0</title></rect><rect x="36" y="293" width="14" height="14" rx="3" fill="#EDF2FA" fill-opacity="0.055"><title>2026-03-22: 0</title></rect><rect x="36" y="312" width="14" height="14" rx="3" fill="#EDF2FA" fill-opacity="0.055"><title>2026-03-23: 0</title></rect><rect x="36" y="331" width="14" height="14" rx="3" fill="#D9B55D" fill-opacity="0.319"><title>2026-03-24: 2</title></rect><rect x="36" y="350" width="14" height="14" rx="3" fill="#EDF2FA" fill-opacity="0.055"><title>2026-03-25: 0</title></rect><rect x="36" y="369" width="14" height="14" rx="3" fill="#EDF2FA" fill-opacity="0.055"><title>2026-03-26: 0</title></rect><rect x="36" y="388" width="14" height="14" rx="3" fill="#D9B55D" fill-opacity="0.329"><title>2026-03-27: 3</title></rect><rect x="36" y="407" width="14" height="14" rx="3" fill="#EDF2FA" fill-opacity="0.055"><title>2026-03-28: 0</title></rect><rect x="55" y="293" width="14" height="14" rx="3" fill="#EDF2FA" fill-opacity="0.055"><title>2026-03-29: 0</title></rect><rect x="55" y="312" width="14" height="14" rx="3" fill="#EDF2FA" fill-opacity="0.055"><title>2026-03-30: 0</title></rect><rect x="55" y="331" width="14" height="14" rx="3" fill="#EDF2FA" fill-opacity="0.055"><title>2026-03-31: 0</title></rect><rect x="55" y="350" width="14" height="14" rx="3" fill="#D9B55D" fill-opacity="0.664"><title>2026-04-01: 38</title></rect><rect x="55" y="369" width="14" height="14" rx="3" fill="#D9B55D" fill-opacity="0.338"><title>2026-04-02: 4</title></rect><rect x="55" y="388" width="14" height="14" rx="3" fill="#D9B55D" fill-opacity="0.377"><title>2026-04-03: 8</title></rect><rect x="55" y="407" width="14" height="14" rx="3" fill="#EDF2FA" fill-opacity="0.055"><title>2026-04-04: 0</title></rect><rect x="74" y="293" width="14" height="14" rx="3" fill="#D9B55D" fill-opacity="0.358"><title>2026-04-05: 6</title></rect><rect x="74" y="312" width="14" height="14" rx="3" fill="#D9B55D" fill-opacity="0.310"><title>2026-04-06: 1</title></rect><rect x="74" y="331" width="14" height="14" rx="3" fill="#EDF2FA" fill-opacity="0.055"><title>2026-04-07: 0</title></rect><rect x="74" y="350" width="14" height="14" rx="3" fill="#EDF2FA" fill-opacity="0.055"><title>2026-04-08: 0</title></rect><rect x="74" y="369" width="14" height="14" rx="3" fill="#EDF2FA" fill-opacity="0.055"><title>2026-04-09: 0</title></rect><rect x="74" y="388" width="14" height="14" rx="3" fill="#EDF2FA" fill-opacity="0.055"><title>2026-04-10: 0</title></rect><rect x="74" y="407" width="14" height="14" rx="3" fill="#EDF2FA" fill-opacity="0.055"><title>2026-04-11: 0</title></rect><rect x="93" y="293" width="14" height="14" rx="3" fill="#EDF2FA" fill-opacity="0.055"><title>2026-04-12: 0</title></rect><rect x="93" y="312" width="14" height="14" rx="3" fill="#EDF2FA" fill-opacity="0.055"><title>2026-04-13: 0</title></rect><rect x="93" y="331" width="14" height="14" rx="3" fill="#EDF2FA" fill-opacity="0.055"><title>2026-04-14: 0</title></rect><rect x="93" y="350" width="14" height="14" rx="3" fill="#EDF2FA" fill-opacity="0.055"><title>2026-04-15: 0</title></rect><rect x="93" y="369" width="14" height="14" rx="3" fill="#EDF2FA" fill-opacity="0.055"><title>2026-04-16: 0</title></rect><rect x="93" y="388" width="14" height="14" rx="3" fill="#EDF2FA" fill-opacity="0.055"><title>2026-04-17: 0</title></rect><rect x="93" y="407" width="14" height="14" rx="3" fill="#EDF2FA" fill-opacity="0.055"><title>2026-04-18: 0</title></rect><rect x="112" y="293" width="14" height="14" rx="3" fill="#EDF2FA" fill-opacity="0.055"><title>2026-04-19: 0</title></rect><rect x="112" y="312" width="14" height="14" rx="3" fill="#EDF2FA" fill-opacity="0.055"><title>2026-04-20: 0</title></rect><rect x="112" y="331" width="14" height="14" rx="3" fill="#D9B55D" fill-opacity="0.549"><title>2026-04-21: 26</title></rect><rect x="112" y="350" width="14" height="14" rx="3" fill="#D9B55D" fill-opacity="0.329"><title>2026-04-22: 3</title></rect><rect x="112" y="369" width="14" height="14" rx="3" fill="#D9B55D" fill-opacity="0.310"><title>2026-04-23: 1</title></rect><rect x="112" y="388" width="14" height="14" rx="3" fill="#D9B55D" fill-opacity="0.329"><title>2026-04-24: 3</title></rect><rect x="112" y="407" width="14" height="14" rx="3" fill="#EDF2FA" fill-opacity="0.055"><title>2026-04-25: 0</title></rect><rect x="131" y="293" width="14" height="14" rx="3" fill="#EDF2FA" fill-opacity="0.055"><title>2026-04-26: 0</title></rect><rect x="131" y="312" width="14" height="14" rx="3" fill="#D9B55D" fill-opacity="0.319"><title>2026-04-27: 2</title></rect><rect x="131" y="331" width="14" height="14" rx="3" fill="#EDF2FA" fill-opacity="0.055"><title>2026-04-28: 0</title></rect><rect x="131" y="350" width="14" height="14" rx="3" fill="#D9B55D" fill-opacity="0.329"><title>2026-04-29: 3</title></rect><rect x="131" y="369" width="14" height="14" rx="3" fill="#D9B55D" fill-opacity="0.329"><title>2026-04-30: 3</title></rect><rect x="131" y="388" width="14" height="14" rx="3" fill="#D9B55D" fill-opacity="0.655"><title>2026-05-01: 37</title></rect><rect x="131" y="407" width="14" height="14" rx="3" fill="#EDF2FA" fill-opacity="0.055"><title>2026-05-02: 0</title></rect><rect x="150" y="293" width="14" height="14" rx="3" fill="#EDF2FA" fill-opacity="0.055"><title>2026-05-03: 0</title></rect><rect x="150" y="312" width="14" height="14" rx="3" fill="#EDF2FA" fill-opacity="0.055"><title>2026-05-04: 0</title></rect><rect x="150" y="331" width="14" height="14" rx="3" fill="#EDF2FA" fill-opacity="0.055"><title>2026-05-05: 0</title></rect><rect x="150" y="350" width="14" height="14" rx="3" fill="#D9B55D" fill-opacity="0.338"><title>2026-05-06: 4</title></rect><rect x="150" y="369" width="14" height="14" rx="3" fill="#EDF2FA" fill-opacity="0.055"><title>2026-05-07: 0</title></rect><rect x="150" y="388" width="14" height="14" rx="3" fill="#EDF2FA" fill-opacity="0.055"><title>2026-05-08: 0</title></rect><rect x="150" y="407" width="14" height="14" rx="3" fill="#EDF2FA" fill-opacity="0.055"><title>2026-05-09: 0</title></rect><rect x="169" y="293" width="14" height="14" rx="3" fill="#D9B55D" fill-opacity="0.319"><title>2026-05-10: 2</title></rect><rect x="169" y="312" width="14" height="14" rx="3" fill="#D9B55D" fill-opacity="0.396"><title>2026-05-11: 10</title></rect><rect x="169" y="331" width="14" height="14" rx="3" fill="#D9B55D" fill-opacity="0.396"><title>2026-05-12: 10</title></rect><rect x="169" y="350" width="14" height="14" rx="3" fill="#D9B55D" fill-opacity="0.310"><title>2026-05-13: 1</title></rect><rect x="169" y="369" width="14" height="14" rx="3" fill="#EDF2FA" fill-opacity="0.055"><title>2026-05-14: 0</title></rect><rect x="169" y="388" width="14" height="14" rx="3" fill="#D9B55D" fill-opacity="0.310"><title>2026-05-15: 1</title></rect><rect x="169" y="407" width="14" height="14" rx="3" fill="#EDF2FA" fill-opacity="0.055"><title>2026-05-16: 0</title></rect><rect x="188" y="293" width="14" height="14" rx="3" fill="#EDF2FA" fill-opacity="0.055"><title>2026-05-17: 0</title></rect><rect x="188" y="312" width="14" height="14" rx="3" fill="#EDF2FA" fill-opacity="0.055"><title>2026-05-18: 0</title></rect><rect x="188" y="331" width="14" height="14" rx="3" fill="#EDF2FA" fill-opacity="0.055"><title>2026-05-19: 0</title></rect><rect x="188" y="350" width="14" height="14" rx="3" fill="#EDF2FA" fill-opacity="0.055"><title>2026-05-20: 0</title></rect><rect x="188" y="369" width="14" height="14" rx="3" fill="#EDF2FA" fill-opacity="0.055"><title>2026-05-21: 0</title></rect><rect x="188" y="388" width="14" height="14" rx="3" fill="#EDF2FA" fill-opacity="0.055"><title>2026-05-22: 0</title></rect><rect x="188" y="407" width="14" height="14" rx="3" fill="#EDF2FA" fill-opacity="0.055"><title>2026-05-23: 0</title></rect><rect x="207" y="293" width="14" height="14" rx="3" fill="#EDF2FA" fill-opacity="0.055"><title>2026-05-24: 0</title></rect><rect x="207" y="312" width="14" height="14" rx="3" fill="#EDF2FA" fill-opacity="0.055"><title>2026-05-25: 0</title></rect><rect x="207" y="331" width="14" height="14" rx="3" fill="#D9B55D" fill-opacity="0.310"><title>2026-05-26: 1</title></rect><rect x="207" y="350" width="14" height="14" rx="3" fill="#D9B55D" fill-opacity="0.338"><title>2026-05-27: 4</title></rect><rect x="207" y="369" width="14" height="14" rx="3" fill="#EDF2FA" fill-opacity="0.055"><title>2026-05-28: 0</title></rect><rect x="207" y="388" width="14" height="14" rx="3" fill="#EDF2FA" fill-opacity="0.055"><title>2026-05-29: 0</title></rect><rect x="207" y="407" width="14" height="14" rx="3" fill="#EDF2FA" fill-opacity="0.055"><title>2026-05-30: 0</title></rect><rect x="226" y="293" width="14" height="14" rx="3" fill="#EDF2FA" fill-opacity="0.055"><title>2026-05-31: 0</title></rect><rect x="226" y="312" width="14" height="14" rx="3" fill="#EDF2FA" fill-opacity="0.055"><title>2026-06-01: 0</title></rect><rect x="226" y="331" width="14" height="14" rx="3" fill="#EDF2FA" fill-opacity="0.055"><title>2026-06-02: 0</title></rect><rect x="226" y="350" width="14" height="14" rx="3" fill="#EDF2FA" fill-opacity="0.055"><title>2026-06-03: 0</title></rect><rect x="226" y="369" width="14" height="14" rx="3" fill="#EDF2FA" fill-opacity="0.055"><title>2026-06-04: 0</title></rect><rect x="226" y="388" width="14" height="14" rx="3" fill="#EDF2FA" fill-opacity="0.055"><title>2026-06-05: 0</title></rect><rect x="226" y="407" width="14" height="14" rx="3" fill="#EDF2FA" fill-opacity="0.055"><title>2026-06-06: 0</title></rect><rect x="245" y="293" width="14" height="14" rx="3" fill="#EDF2FA" fill-opacity="0.055"><title>2026-06-07: 0</title></rect><rect x="245" y="312" width="14" height="14" rx="3" fill="#EDF2FA" fill-opacity="0.055"><title>2026-06-08: 0</title></rect><rect x="245" y="331" width="14" height="14" rx="3" fill="#EDF2FA" fill-opacity="0.055"><title>2026-06-09: 0</title></rect><rect x="245" y="350" width="14" height="14" rx="3" fill="#EDF2FA" fill-opacity="0.055"><title>2026-06-10: 0</title></rect><rect x="245" y="369" width="14" height="14" rx="3" fill="#D9B55D" fill-opacity="0.444"><title>2026-06-11: 15</title></rect><rect x="245" y="388" width="14" height="14" rx="3" fill="#EDF2FA" fill-opacity="0.055"><title>2026-06-12: 0</title></rect><rect x="245" y="407" width="14" height="14" rx="3" fill="#EDF2FA" fill-opacity="0.055"><title>2026-06-13: 0</title></rect><rect x="264" y="293" width="14" height="14" rx="3" fill="#EDF2FA" fill-opacity="0.055"><title>2026-06-14: 0</title></rect><rect x="264" y="312" width="14" height="14" rx="3" fill="#EDF2FA" fill-opacity="0.055"><title>2026-06-15: 0</title></rect><rect x="264" y="331" width="14" height="14" rx="3" fill="#EDF2FA" fill-opacity="0.055"><title>2026-06-16: 0</title></rect><rect x="264" y="350" width="14" height="14" rx="3" fill="#EDF2FA" fill-opacity="0.055"><title>2026-06-17: 0</title></rect><rect x="264" y="369" width="14" height="14" rx="3" fill="#EDF2FA" fill-opacity="0.055"><title>2026-06-18: 0</title></rect><rect x="264" y="388" width="14" height="14" rx="3" fill="#EDF2FA" fill-opacity="0.055"><title>2026-06-19: 0</title></rect><rect x="264" y="407" width="14" height="14" rx="3" fill="#EDF2FA" fill-opacity="0.055"><title>2026-06-20: 0</title></rect><rect x="283" y="293" width="14" height="14" rx="3" fill="#EDF2FA" fill-opacity="0.055"><title>2026-06-21: 0</title></rect><rect x="283" y="312" width="14" height="14" rx="3" fill="#EDF2FA" fill-opacity="0.055"><title>2026-06-22: 0</title></rect><rect x="283" y="331" width="14" height="14" rx="3" fill="#EDF2FA" fill-opacity="0.055"><title>2026-06-23: 0</title></rect><rect x="283" y="350" width="14" height="14" rx="3" fill="#EDF2FA" fill-opacity="0.055"><title>2026-06-24: 0</title></rect><rect x="283" y="369" width="14" height="14" rx="3" fill="#EDF2FA" fill-opacity="0.055"><title>2026-06-25: 0</title></rect><rect x="283" y="388" width="14" height="14" rx="3" fill="#EDF2FA" fill-opacity="0.055"><title>2026-06-26: 0</title></rect><rect x="283" y="407" width="14" height="14" rx="3" fill="#EDF2FA" fill-opacity="0.055"><title>2026-06-27: 0</title></rect><rect x="302" y="293" width="14" height="14" rx="3" fill="#EDF2FA" fill-opacity="0.055"><title>2026-06-28: 0</title></rect><rect x="302" y="312" width="14" height="14" rx="3" fill="#EDF2FA" fill-opacity="0.055"><title>2026-06-29: 0</title></rect><rect x="302" y="331" width="14" height="14" rx="3" fill="#EDF2FA" fill-opacity="0.055"><title>2026-06-30: 0</title></rect><rect x="302" y="350" width="14" height="14" rx="3" fill="#EDF2FA" fill-opacity="0.055"><title>2026-07-01: 0</title></rect><rect x="302" y="369" width="14" height="14" rx="3" fill="#EDF2FA" fill-opacity="0.055"><title>2026-07-02: 0</title></rect><rect x="302" y="388" width="14" height="14" rx="3" fill="#EDF2FA" fill-opacity="0.055"><title>2026-07-03: 0</title></rect><rect x="302" y="407" width="14" height="14" rx="3" fill="#EDF2FA" fill-opacity="0.055"><title>2026-07-04: 0</title></rect><rect x="321" y="293" width="14" height="14" rx="3" fill="#EDF2FA" fill-opacity="0.055"><title>2026-07-05: 0</title></rect><rect x="321" y="312" width="14" height="14" rx="3" fill="#EDF2FA" fill-opacity="0.055"><title>2026-07-06: 0</title></rect><rect x="321" y="331" width="14" height="14" rx="3" fill="#EDF2FA" fill-opacity="0.055"><title>2026-07-07: 0</title></rect><rect x="321" y="350" width="14" height="14" rx="3" fill="#EDF2FA" fill-opacity="0.055"><title>2026-07-08: 0</title></rect><rect x="321" y="369" width="14" height="14" rx="3" fill="#EDF2FA" fill-opacity="0.055"><title>2026-07-09: 0</title></rect><rect x="321" y="388" width="14" height="14" rx="3" fill="#D9B55D" fill-opacity="0.530"><title>2026-07-10: 24</title></rect><rect x="321" y="407" width="14" height="14" rx="3" fill="#EDF2FA" fill-opacity="0.055"><title>2026-07-11: 0</title></rect><rect x="340" y="293" width="14" height="14" rx="3" fill="#EDF2FA" fill-opacity="0.055"><title>2026-07-12: 0</title></rect><rect x="340" y="312" width="14" height="14" rx="3" fill="#EDF2FA" fill-opacity="0.055"><title>2026-07-13: 0</title></rect><rect x="340" y="331" width="14" height="14" rx="3" fill="#D9B55D" fill-opacity="0.319"><title>2026-07-14: 2</title></rect><rect x="340" y="350" width="14" height="14" rx="3" fill="#EDF2FA" fill-opacity="0.055"><title>2026-07-15: 0</title></rect><rect x="340" y="369" width="14" height="14" rx="3" fill="#EDF2FA" fill-opacity="0.055"><title>2026-07-16: 0</title></rect><rect x="340" y="388" width="14" height="14" rx="3" fill="#EDF2FA" fill-opacity="0.055"><title>2026-07-17: 0</title></rect><rect x="340" y="407" width="14" height="14" rx="3" fill="#EDF2FA" fill-opacity="0.055"><title>2026-07-18: 0</title></rect><rect x="359" y="293" width="14" height="14" rx="3" fill="#EDF2FA" fill-opacity="0.055"><title>2026-07-19: 0</title></rect><rect x="359" y="312" width="14" height="14" rx="3" fill="#EDF2FA" fill-opacity="0.055"><title>2026-07-20: 0</title></rect><rect x="359" y="331" width="14" height="14" rx="3" fill="#EDF2FA" fill-opacity="0.055"><title>2026-07-21: 0</title></rect><rect x="359" y="350" width="14" height="14" rx="3" fill="#EDF2FA" fill-opacity="0.055"><title>2026-07-22: 0</title></rect><rect x="359" y="369" width="14" height="14" rx="3" fill="#EDF2FA" fill-opacity="0.055"><title>2026-07-23: 0</title></rect><rect x="359" y="388" width="14" height="14" rx="3" fill="#EDF2FA" fill-opacity="0.055"><title>2026-07-24: 0</title></rect><rect x="359" y="407" width="14" height="14" rx="3" fill="#EDF2FA" fill-opacity="0.055"><title>2026-07-25: 0</title></rect><rect x="378" y="293" width="14" height="14" rx="3" fill="#EDF2FA" fill-opacity="0.055"><title>2026-07-26: 0</title></rect><rect x="378" y="312" width="14" height="14" rx="3" fill="#EDF2FA" fill-opacity="0.055"><title>2026-07-27: 0</title></rect><rect x="378" y="331" width="14" height="14" rx="3" fill="#EDF2FA" fill-opacity="0.055"><title>2026-07-28: 0</title></rect><rect x="378" y="350" width="14" height="14" rx="3" fill="#EDF2FA" fill-opacity="0.055"><title>2026-07-29: 0</title></rect><rect x="378" y="369" width="14" height="14" rx="3" fill="#EDF2FA" fill-opacity="0.055"><title>2026-07-30: 0</title></rect><rect x="378" y="388" width="14" height="14" rx="3" fill="#EDF2FA" fill-opacity="0.055"><title>2026-07-31: 0</title></rect><rect x="378" y="407" width="14" height="14" rx="3" fill="#EDF2FA" fill-opacity="0.055"><title>2026-08-01: 0</title></rect><rect x="397" y="293" width="14" height="14" rx="3" fill="#EDF2FA" fill-opacity="0.055"><title>2026-08-02: 0</title></rect><rect x="397" y="312" width="14" height="14" rx="3" fill="#EDF2FA" fill-opacity="0.055"><title>2026-08-03: 0</title></rect><rect x="397" y="331" width="14" height="14" rx="3" fill="#EDF2FA" fill-opacity="0.055"><title>2026-08-04: 0</title></rect><rect x="397" y="350" width="14" height="14" rx="3" fill="#EDF2FA" fill-opacity="0.055"><title>2026-08-05: 0</title></rect><rect x="397" y="369" width="14" height="14" rx="3" fill="#EDF2FA" fill-opacity="0.055"><title>2026-08-06: 0</title></rect><rect x="397" y="388" width="14" height="14" rx="3" fill="#EDF2FA" fill-opacity="0.055"><title>2026-08-07: 0</title></rect><rect x="397" y="407" width="14" height="14" rx="3" fill="#EDF2FA" fill-opacity="0.055"><title>2026-08-08: 0</title></rect><rect x="416" y="293" width="14" height="14" rx="3" fill="#EDF2FA" fill-opacity="0.055"><title>2026-08-09: 0</title></rect><rect x="416" y="312" width="14" height="14" rx="3" fill="#EDF2FA" fill-opacity="0.055"><title>2026-08-10: 0</title></rect><rect x="416" y="331" width="14" height="14" rx="3" fill="#EDF2FA" fill-opacity="0.055"><title>2026-08-11: 0</title></rect><rect x="416" y="350" width="14" height="14" rx="3" fill="#EDF2FA" fill-opacity="0.055"><title>2026-08-12: 0</title></rect><rect x="416" y="369" width="14" height="14" rx="3" fill="#EDF2FA" fill-opacity="0.055"><title>2026-08-13: 0</title></rect><rect x="416" y="388" width="14" height="14" rx="3" fill="#EDF2FA" fill-opacity="0.055"><title>2026-08-14: 0</title></rect><rect x="416" y="407" width="14" height="14" rx="3" fill="#EDF2FA" fill-opacity="0.055"><title>2026-08-15: 0</title></rect><rect x="435" y="293" width="14" height="14" rx="3" fill="#EDF2FA" fill-opacity="0.055"><title>2026-08-16: 0</title></rect><rect x="435" y="312" width="14" height="14" rx="3" fill="#EDF2FA" fill-opacity="0.055"><title>2026-08-17: 0</title></rect><rect x="435" y="331" width="14" height="14" rx="3" fill="#EDF2FA" fill-opacity="0.055"><title>2026-08-18: 0</title></rect><rect x="435" y="350" width="14" height="14" rx="3" fill="#EDF2FA" fill-opacity="0.055"><title>2026-08-19: 0</title></rect><rect x="435" y="369" width="14" height="14" rx="3" fill="#EDF2FA" fill-opacity="0.055"><title>2026-08-20: 0</title></rect><rect x="435" y="388" width="14" height="14" rx="3" fill="#EDF2FA" fill-opacity="0.055"><title>2026-08-21: 0</title></rect><rect x="435" y="407" width="14" height="14" rx="3" fill="#EDF2FA" fill-opacity="0.055"><title>2026-08-22: 0</title></rect><rect x="454" y="293" width="14" height="14" rx="3" fill="#EDF2FA" fill-opacity="0.055"><title>2026-08-23: 0</title></rect><rect x="454" y="312" width="14" height="14" rx="3" fill="#EDF2FA" fill-opacity="0.055"><title>2026-08-24: 0</title></rect><rect x="454" y="331" width="14" height="14" rx="3" fill="#EDF2FA" fill-opacity="0.055"><title>2026-08-25: 0</title></rect><rect x="454" y="350" width="14" height="14" rx="3" fill="#EDF2FA" fill-opacity="0.055"><title>2026-08-26: 0</title></rect><rect x="454" y="369" width="14" height="14" rx="3" fill="#EDF2FA" fill-opacity="0.055"><title>2026-08-27: 0</title></rect><rect x="454" y="388" width="14" height="14" rx="3" fill="#EDF2FA" fill-opacity="0.055"><title>2026-08-28: 0</title></rect><rect x="454" y="407" width="14" height="14" rx="3" fill="#D9B55D" fill-opacity="0.310"><title>2026-08-29: 1</title></rect><rect x="473" y="293" width="14" height="14" rx="3" fill="#EDF2FA" fill-opacity="0.055"><title>2026-08-30: 0</title></rect><rect x="473" y="312" width="14" height="14" rx="3" fill="#EDF2FA" fill-opacity="0.055"><title>2026-08-31: 0</title></rect><rect x="473" y="331" width="14" height="14" rx="3" fill="#EDF2FA" fill-opacity="0.055"><title>2026-09-01: 0</title></rect><rect x="473" y="350" width="14" height="14" rx="3" fill="#EDF2FA" fill-opacity="0.055"><title>2026-09-02: 0</title></rect><rect x="473" y="369" width="14" height="14" rx="3" fill="#D9B55D" fill-opacity="0.338"><title>2026-09-03: 4</title></rect><rect x="473" y="388" width="14" height="14" rx="3" fill="#EDF2FA" fill-opacity="0.055"><title>2026-09-04: 0</title></rect><rect x="473" y="407" width="14" height="14" rx="3" fill="#EDF2FA" fill-opacity="0.055"><title>2026-09-05: 0</title></rect><rect x="492" y="293" width="14" height="14" rx="3" fill="#EDF2FA" fill-opacity="0.055"><title>2026-09-06: 0</title></rect><rect x="492" y="312" width="14" height="14" rx="3" fill="#EDF2FA" fill-opacity="0.055"><title>2026-09-07: 0</title></rect><rect x="492" y="331" width="14" height="14" rx="3" fill="#EDF2FA" fill-opacity="0.055"><title>2026-09-08: 0</title></rect><rect x="492" y="350" width="14" height="14" rx="3" fill="#EDF2FA" fill-opacity="0.055"><title>2026-09-09: 0</title></rect><rect x="492" y="369" width="14" height="14" rx="3" fill="#EDF2FA" fill-opacity="0.055"><title>2026-09-10: 0</title></rect><rect x="492" y="388" width="14" height="14" rx="3" fill="#EDF2FA" fill-opacity="0.055"><title>2026-09-11: 0</title></rect><rect x="492" y="407" width="14" height="14" rx="3" fill="#EDF2FA" fill-opacity="0.055"><title>2026-09-12: 0</title></rect><rect x="511" y="293" width="14" height="14" rx="3" fill="#EDF2FA" fill-opacity="0.055"><title>2026-09-13: 0</title></rect><rect x="511" y="312" width="14" height="14" rx="3" fill="#EDF2FA" fill-opacity="0.055"><title>2026-09-14: 0</title></rect><rect x="511" y="331" width="14" height="14" rx="3" fill="#EDF2FA" fill-opacity="0.055"><title>2026-09-15: 0</title></rect><rect x="511" y="350" width="14" height="14" rx="3" fill="#EDF2FA" fill-opacity="0.055"><title>2026-09-16: 0</title></rect><rect x="511" y="369" width="14" height="14" rx="3" fill="#EDF2FA" fill-opacity="0.055"><title>2026-09-17: 0</title></rect><rect x="511" y="388" width="14" height="14" rx="3" fill="#D9B55D" fill-opacity="0.377"><title>2026-09-18: 8</title></rect><rect x="511" y="407" width="14" height="14" rx="3" fill="#EDF2FA" fill-opacity="0.055"><title>2026-09-19: 0</title></rect><g aria-label="Ярче — больше вкладов в этот день" fill="#EDF2FA99" opacity="1"><path d="M49.12 472.44 L49.12 489 L47.07 489 L47.07 482.88 L42.23 482.88 L39.27 489 L36.92 489 L40.12 482.44 Q38.97 481.97 38.27 480.98 L38.27 480.98 Q37.27 479.58 37.27 477.66 L37.27 477.66 Q37.27 476.34 37.73 475.25 Q38.2 474.17 39.11 473.45 Q40.02 472.74 41.36 472.53 L41.36 472.53 Q41.68 472.47 42.01 472.46 Q42.34 472.44 42.58 472.44 L42.58 472.44 L49.12 472.44 M42.65 480.94 L47.07 480.94 L47.07 474.38 L42.65 474.38 Q42.44 474.38 42.16 474.4 Q41.88 474.42 41.61 474.49 L41.61 474.49 Q40.82 474.66 40.32 475.15 Q39.83 475.65 39.59 476.31 Q39.36 476.97 39.36 477.66 Q39.36 478.35 39.59 479.01 Q39.83 479.67 40.32 480.16 Q40.82 480.65 41.61 480.83 L41.61 480.83 Q41.88 480.89 42.16 480.92 Q42.44 480.94 42.65 480.94 L42.65 480.94 M58.05 489.35 L58.05 489.35 Q56.3 489.35 55.1 488.47 L55.1 488.47 Q54.71 488.19 54.39 487.85 L54.39 487.85 L54.39 494.52 L52.33 494.52 L52.33 476.58 L54.16 476.58 L54.16 477.96 Q54.57 477.47 55.11 477.09 L55.11 477.09 Q56.31 476.24 58.06 476.24 L58.06 476.24 Q59.78 476.24 61.03 477.09 Q62.28 477.95 62.94 479.43 Q63.61 480.92 63.61 482.78 Q63.61 484.64 62.94 486.13 Q62.28 487.61 61.03 488.48 Q59.78 489.35 58.05 489.35 M57.79 487.47 L57.79 487.47 Q59.02 487.47 59.83 486.85 Q60.63 486.23 61.04 485.16 Q61.44 484.1 61.44 482.78 L61.44 482.78 Q61.44 481.47 61.04 480.41 Q60.64 479.35 59.82 478.73 Q59 478.11 57.73 478.11 L57.73 478.11 Q56.53 478.11 55.73 478.7 Q54.94 479.29 54.55 480.35 Q54.16 481.4 54.16 482.78 L54.16 482.78 Q54.16 484.14 54.54 485.2 Q54.93 486.26 55.73 486.87 Q56.54 487.47 57.79 487.47 M75.67 489 L73.62 489 L73.62 484.53 Q73 484.84 72.12 485.06 Q71.24 485.27 70.24 485.27 L70.24 485.27 Q68.34 485.27 67.18 484.42 Q66.02 483.57 65.66 481.97 L65.66 481.97 Q65.55 481.49 65.51 480.97 Q65.47 480.46 65.46 480.03 Q65.45 479.6 65.45 479.41 L65.45 479.41 L65.45 476.58 L67.52 476.58 L67.52 479.41 Q67.52 479.74 67.54 480.23 Q67.57 480.72 67.66 481.18 L67.66 481.18 Q67.89 482.32 68.62 482.89 Q69.35 483.47 70.68 483.47 L70.68 483.47 Q71.58 483.47 72.34 483.24 Q73.1 483.01 73.62 482.63 L73.62 482.63 L73.62 476.58 L75.67 476.58 L75.67 489 M84.28 489.35 L84.28 489.35 Q82.45 489.35 81.09 488.53 Q79.72 487.72 78.96 486.27 Q78.2 484.81 78.2 482.87 L78.2 482.87 Q78.2 480.83 78.95 479.35 Q79.7 477.86 81.04 477.05 Q82.38 476.24 84.19 476.24 L84.19 476.24 Q86.06 476.24 87.38 477.1 Q88.69 477.96 89.35 479.56 Q90.02 481.16 89.92 483.37 L89.92 483.37 L80.4 483.37 Q80.52 485.15 81.37 486.19 L81.37 486.19 Q82.36 487.4 84.19 487.4 L84.19 487.4 Q85.42 487.4 86.32 486.84 Q87.23 486.27 87.75 485.22 L87.75 485.22 L89.72 485.89 Q88.99 487.54 87.54 488.44 Q86.08 489.35 84.28 489.35 M80.44 481.72 L87.8 481.72 Q87.63 480.1 86.92 479.2 L86.92 479.2 Q86.02 478.07 84.25 478.07 L84.25 478.07 Q82.36 478.07 81.37 479.29 L81.37 479.29 Q80.62 480.21 80.44 481.72 L80.44 481.72  M112.03 482.59 L96.85 482.59 L96.85 480.9 L112.03 480.9 L112.03 482.59  M124.67 489.36 L124.67 489.36 Q122.91 489.35 121.66 488.59 Q120.42 487.84 119.73 486.38 Q119.04 484.92 118.96 482.8 L118.96 482.8 Q118.92 481.82 118.99 480.65 Q119.06 479.48 119.24 478.4 Q119.42 477.32 119.7 476.61 L119.7 476.61 Q120.01 475.77 120.58 475.06 Q121.15 474.34 121.86 473.87 L121.86 473.87 Q122.58 473.37 123.48 473.1 Q124.38 472.82 125.36 472.66 Q126.34 472.51 127.33 472.39 Q128.32 472.27 129.22 472.1 L129.22 472.1 L129.43 473.94 Q128.79 474.07 127.93 474.17 Q127.07 474.27 126.14 474.39 Q125.22 474.52 124.37 474.75 Q123.53 474.97 122.92 475.36 L122.92 475.36 Q122.02 475.9 121.54 476.98 Q121.07 478.05 120.96 479.39 L120.96 479.39 Q121.67 478.28 122.81 477.76 Q123.95 477.25 125.24 477.25 L125.24 477.25 Q126.91 477.25 128.12 478.02 Q129.32 478.8 129.97 480.16 Q130.62 481.51 130.62 483.25 L130.62 483.25 Q130.62 485.09 129.89 486.47 Q129.15 487.85 127.81 488.61 Q126.47 489.37 124.67 489.36 M124.79 487.41 L124.79 487.41 Q126.6 487.41 127.53 486.29 Q128.46 485.17 128.46 483.31 L128.46 483.31 Q128.46 481.4 127.49 480.3 Q126.53 479.2 124.78 479.2 L124.78 479.2 Q123.01 479.2 122.07 480.3 Q121.13 481.4 121.13 483.31 L121.13 483.31 Q121.13 485.23 122.08 486.32 Q123.02 487.41 124.79 487.41 M138.44 489.35 L138.44 489.35 Q136.59 489.35 135.25 488.51 Q133.91 487.67 133.19 486.18 Q132.46 484.7 132.46 482.78 L132.46 482.78 Q132.46 480.82 133.2 479.35 Q133.93 477.88 135.28 477.06 Q136.63 476.24 138.44 476.24 L138.44 476.24 Q140.31 476.24 141.65 477.07 Q143 477.9 143.71 479.38 Q144.43 480.86 144.43 482.78 L144.43 482.78 Q144.43 484.72 143.71 486.2 Q142.98 487.68 141.64 488.51 Q140.29 489.35 138.44 489.35 M138.44 487.4 L138.44 487.4 Q140.37 487.4 141.32 486.11 Q142.26 484.83 142.26 482.78 L142.26 482.78 Q142.26 480.67 141.31 479.43 Q140.35 478.18 138.44 478.18 L138.44 478.18 Q137.14 478.18 136.3 478.76 Q135.46 479.35 135.05 480.39 Q134.64 481.42 134.64 482.78 L134.64 482.78 Q134.64 484.87 135.6 486.14 Q136.57 487.4 138.44 487.4 M145.81 489 L145.81 489 L145.81 487.24 Q146.5 487.37 146.87 487.19 Q147.23 487.01 147.41 486.56 Q147.58 486.1 147.7 485.41 L147.7 485.41 Q147.9 484.32 148.04 482.97 Q148.18 481.63 148.3 480.02 Q148.42 478.42 148.53 476.58 L148.53 476.58 L157.21 476.58 L157.21 489 L155.16 489 L155.16 478.52 L150.39 478.52 Q150.32 479.58 150.22 480.7 Q150.13 481.81 150.02 482.86 Q149.92 483.92 149.8 484.82 Q149.68 485.72 149.54 486.38 L149.54 486.38 Q149.32 487.5 148.93 488.18 Q148.54 488.85 147.8 489.05 Q147.07 489.25 145.81 489 M165.27 489 L160.43 489 L160.42 476.58 L162.48 476.58 L162.48 481.08 L165.16 481.08 Q165.7 481.08 166.26 481.1 Q166.82 481.12 167.24 481.2 L167.24 481.2 Q168.2 481.39 168.93 481.85 Q169.65 482.31 170.06 483.09 Q170.46 483.88 170.46 485.04 L170.46 485.04 Q170.46 486.65 169.62 487.59 Q168.79 488.53 167.44 488.84 L167.44 488.84 Q166.98 488.94 166.39 488.97 Q165.8 489 165.27 489 L165.27 489 M162.48 482.77 L162.48 487.31 L165.31 487.31 Q165.65 487.31 166.08 487.29 Q166.5 487.26 166.84 487.17 L166.84 487.17 Q167.42 487 167.89 486.49 Q168.35 485.99 168.35 485.04 L168.35 485.04 Q168.35 484.09 167.9 483.57 Q167.44 483.05 166.71 482.89 L166.71 482.89 Q166.38 482.81 166.01 482.79 Q165.64 482.77 165.31 482.77 L165.31 482.77 L162.48 482.77 M187.11 489 L172.63 489 L172.63 476.58 L174.61 476.58 L174.61 487.14 L178.89 487.14 L178.89 476.58 L180.87 476.58 L180.87 487.14 L185.13 487.14 L185.13 476.58 L187.11 476.58 L187.11 489 M195.71 489.35 L195.71 489.35 Q193.88 489.35 192.52 488.53 Q191.16 487.72 190.4 486.27 Q189.64 484.81 189.64 482.87 L189.64 482.87 Q189.64 480.83 190.39 479.35 Q191.13 477.86 192.47 477.05 Q193.81 476.24 195.62 476.24 L195.62 476.24 Q197.49 476.24 198.81 477.1 Q200.13 477.96 200.79 479.56 Q201.45 481.16 201.36 483.37 L201.36 483.37 L191.84 483.37 Q191.95 485.15 192.8 486.19 L192.8 486.19 Q193.79 487.4 195.62 487.4 L195.62 487.4 Q196.85 487.4 197.76 486.84 Q198.67 486.27 199.19 485.22 L199.19 485.22 L201.15 485.89 Q200.43 487.54 198.97 488.44 Q197.52 489.35 195.71 489.35 M191.87 481.72 L199.23 481.72 Q199.07 480.1 198.36 479.2 L198.36 479.2 Q197.46 478.07 195.69 478.07 L195.69 478.07 Q193.79 478.07 192.8 479.29 L192.8 479.29 Q192.06 480.21 191.87 481.72 L191.87 481.72  M214.39 489 L208.5 489 L208.5 476.58 L213.79 476.58 Q214.26 476.58 214.81 476.63 Q215.35 476.68 215.8 476.81 L215.8 476.81 Q216.8 477.07 217.45 477.9 Q218.1 478.72 218.1 479.97 L218.1 479.97 Q218.1 480.67 217.89 481.19 Q217.68 481.71 217.29 482.09 L217.29 482.09 Q217.11 482.26 216.91 482.4 Q216.7 482.54 216.49 482.62 L216.49 482.62 Q216.9 482.69 217.31 482.93 L217.31 482.93 Q217.96 483.28 218.34 483.93 Q218.71 484.57 218.71 485.57 L218.71 485.57 Q218.71 486.84 218.1 487.66 Q217.49 488.48 216.42 488.79 L216.42 488.79 Q215.97 488.92 215.43 488.96 Q214.89 489 214.39 489 L214.39 489 M210.57 483.64 L210.57 487.33 L214.27 487.33 Q214.51 487.33 214.85 487.29 Q215.19 487.24 215.46 487.17 L215.46 487.17 Q216.06 487 216.33 486.53 Q216.6 486.06 216.6 485.5 L216.6 485.5 Q216.6 484.77 216.19 484.31 Q215.78 483.85 215.11 483.73 L215.11 483.73 Q214.87 483.66 214.59 483.65 Q214.31 483.64 214.09 483.64 L214.09 483.64 L210.57 483.64 M210.57 478.27 L210.57 481.95 L213.65 481.95 Q213.97 481.95 214.33 481.91 Q214.69 481.87 214.95 481.77 L214.95 481.77 Q215.48 481.57 215.73 481.12 Q215.97 480.66 215.97 480.12 L215.97 480.12 Q215.97 479.52 215.7 479.07 Q215.43 478.62 214.88 478.44 L214.88 478.44 Q214.51 478.31 214.06 478.29 Q213.61 478.27 213.48 478.27 L213.48 478.27 L210.57 478.27 M223.08 489 L221 489 L221.01 476.58 L223.08 476.58 L223.08 482.56 L228.29 476.58 L230.95 476.58 L225.46 482.79 L231.59 489 L228.73 489 L223.08 483.02 L223.08 489 M231.36 489 L231.36 489 L231.36 487.24 Q232.05 487.37 232.41 487.19 Q232.78 487.01 232.95 486.56 Q233.13 486.1 233.25 485.41 L233.25 485.41 Q233.44 484.32 233.59 482.97 Q233.73 481.63 233.85 480.02 Q233.97 478.42 234.08 476.58 L234.08 476.58 L242.76 476.58 L242.76 489 L240.71 489 L240.71 478.52 L235.94 478.52 Q235.87 479.58 235.77 480.7 Q235.67 481.81 235.57 482.86 Q235.47 483.92 235.35 484.82 Q235.23 485.72 235.09 486.38 L235.09 486.38 Q234.87 487.5 234.48 488.18 Q234.09 488.85 233.35 489.05 Q232.62 489.25 231.36 489 M249.51 489.35 L249.51 489.35 Q248.12 489.35 247.18 488.83 Q246.24 488.32 245.77 487.48 Q245.29 486.64 245.29 485.64 L245.29 485.64 Q245.29 484.66 245.66 483.95 Q246.04 483.23 246.71 482.75 Q247.39 482.27 248.34 482 L248.34 482 Q249.22 481.75 250.32 481.58 Q251.42 481.4 252.54 481.25 L252.54 481.25 Q253.26 481.16 253.91 481.06 L253.91 481.06 Q253.88 479.65 253.26 478.94 L253.26 478.94 Q252.56 478.14 250.85 478.14 L250.85 478.14 Q249.73 478.14 248.88 478.66 Q248.04 479.17 247.69 480.32 L247.69 480.32 L245.75 479.73 Q246.2 478.1 247.48 477.17 Q248.77 476.24 250.88 476.24 L250.88 476.24 Q252.57 476.24 253.78 476.84 Q254.99 477.44 255.52 478.66 L255.52 478.66 Q255.79 479.24 255.86 479.91 Q255.93 480.58 255.93 481.32 L255.93 481.32 L255.93 489 L254.11 489 L254.11 487.07 Q253.49 488.01 252.58 488.57 L252.58 488.57 Q251.31 489.35 249.51 489.35 M249.82 487.63 L249.82 487.63 Q250.92 487.63 251.73 487.23 Q252.54 486.84 253.04 486.19 Q253.53 485.54 253.68 484.77 L253.68 484.77 Q253.86 484.19 253.88 483.48 L253.88 483.48 Q253.88 483.1 253.89 482.81 L253.89 482.81 Q253.26 482.89 252.64 482.97 L252.64 482.97 Q251.67 483.1 250.81 483.24 Q249.95 483.39 249.26 483.58 L249.26 483.58 Q248.75 483.74 248.31 484 Q247.86 484.25 247.59 484.65 Q247.32 485.04 247.32 485.63 L247.32 485.63 Q247.32 486.14 247.58 486.6 Q247.84 487.06 248.39 487.34 Q248.93 487.63 249.82 487.63 M259.95 491.76 L258 491.76 L258 487.31 Q259.04 487.31 259.49 486.63 Q259.94 485.94 260.22 484.37 L260.22 484.37 Q260.4 483.38 260.51 482.25 Q260.63 481.12 260.72 479.74 Q260.8 478.35 260.88 476.58 L260.88 476.58 L269.44 476.58 L269.44 487.31 L270.65 487.31 L270.65 491.76 L268.69 491.76 L268.69 489 L259.95 489 L259.95 491.76 M261.15 487.31 L261.15 487.31 L267.39 487.31 L267.39 478.27 L262.73 478.27 Q262.7 479.09 262.64 479.98 Q262.58 480.87 262.51 481.75 Q262.44 482.64 262.34 483.43 Q262.24 484.22 262.11 484.84 L262.11 484.84 Q261.96 485.7 261.77 486.3 Q261.57 486.9 261.15 487.31 M278.24 489.35 L278.24 489.35 Q276.38 489.35 275.04 488.51 Q273.71 487.67 272.98 486.18 Q272.26 484.7 272.26 482.78 L272.26 482.78 Q272.26 480.82 272.99 479.35 Q273.73 477.88 275.07 477.06 Q276.42 476.24 278.24 476.24 L278.24 476.24 Q280.1 476.24 281.44 477.07 Q282.79 477.9 283.51 479.38 Q284.23 480.86 284.23 482.78 L284.23 482.78 Q284.23 484.72 283.5 486.2 Q282.78 487.68 281.43 488.51 Q280.09 489.35 278.24 489.35 M278.24 487.4 L278.24 487.4 Q280.17 487.4 281.11 486.11 Q282.05 484.83 282.05 482.78 L282.05 482.78 Q282.05 480.67 281.1 479.43 Q280.15 478.18 278.24 478.18 L278.24 478.18 Q276.94 478.18 276.1 478.76 Q275.26 479.35 274.84 480.39 Q274.43 481.42 274.43 482.78 L274.43 482.78 Q274.43 484.87 275.4 486.14 Q276.36 487.4 278.24 487.4 M292.63 489 L286.75 489 L286.75 476.58 L292.04 476.58 Q292.51 476.58 293.05 476.63 Q293.6 476.68 294.05 476.81 L294.05 476.81 Q295.05 477.07 295.7 477.9 Q296.35 478.72 296.35 479.97 L296.35 479.97 Q296.35 480.67 296.14 481.19 Q295.92 481.71 295.53 482.09 L295.53 482.09 Q295.36 482.26 295.15 482.4 Q294.95 482.54 294.74 482.62 L294.74 482.62 Q295.14 482.69 295.56 482.93 L295.56 482.93 Q296.21 483.28 296.58 483.93 Q296.96 484.57 296.96 485.57 L296.96 485.57 Q296.96 486.84 296.35 487.66 Q295.74 488.48 294.67 488.79 L294.67 488.79 Q294.22 488.92 293.68 488.96 Q293.14 489 292.63 489 L292.63 489 M288.82 483.64 L288.82 487.33 L292.52 487.33 Q292.76 487.33 293.1 487.29 Q293.44 487.24 293.7 487.17 L293.7 487.17 Q294.3 487 294.57 486.53 Q294.84 486.06 294.84 485.5 L294.84 485.5 Q294.84 484.77 294.43 484.31 Q294.03 483.85 293.36 483.73 L293.36 483.73 Q293.12 483.66 292.84 483.65 Q292.55 483.64 292.33 483.64 L292.33 483.64 L288.82 483.64 M288.82 478.27 L288.82 481.95 L291.9 481.95 Q292.22 481.95 292.58 481.91 Q292.93 481.87 293.2 481.77 L293.2 481.77 Q293.73 481.57 293.97 481.12 Q294.22 480.66 294.22 480.12 L294.22 480.12 Q294.22 479.52 293.95 479.07 Q293.68 478.62 293.13 478.44 L293.13 478.44 Q292.76 478.31 292.31 478.29 Q291.85 478.27 291.73 478.27 L291.73 478.27 L288.82 478.27  M309.73 489 L303.85 489 L303.85 476.58 L309.14 476.58 Q309.61 476.58 310.15 476.63 Q310.7 476.68 311.15 476.81 L311.15 476.81 Q312.15 477.07 312.8 477.9 Q313.45 478.72 313.45 479.97 L313.45 479.97 Q313.45 480.67 313.24 481.19 Q313.02 481.71 312.63 482.09 L312.63 482.09 Q312.46 482.26 312.25 482.4 Q312.05 482.54 311.84 482.62 L311.84 482.62 Q312.24 482.69 312.66 482.93 L312.66 482.93 Q313.31 483.28 313.68 483.93 Q314.06 484.57 314.06 485.57 L314.06 485.57 Q314.06 486.84 313.45 487.66 Q312.84 488.48 311.77 488.79 L311.77 488.79 Q311.32 488.92 310.78 488.96 Q310.24 489 309.73 489 L309.73 489 M305.92 483.64 L305.92 487.33 L309.62 487.33 Q309.86 487.33 310.2 487.29 Q310.54 487.24 310.8 487.17 L310.8 487.17 Q311.4 487 311.67 486.53 Q311.94 486.06 311.94 485.5 L311.94 485.5 Q311.94 484.77 311.53 484.31 Q311.13 483.85 310.46 483.73 L310.46 483.73 Q310.22 483.66 309.94 483.65 Q309.65 483.64 309.44 483.64 L309.44 483.64 L305.92 483.64 M305.92 478.27 L305.92 481.95 L309 481.95 Q309.32 481.95 309.68 481.91 Q310.03 481.87 310.3 481.77 L310.3 481.77 Q310.83 481.57 311.07 481.12 Q311.32 480.66 311.32 480.12 L311.32 480.12 Q311.32 479.52 311.05 479.07 Q310.78 478.62 310.23 478.44 L310.23 478.44 Q309.86 478.31 309.41 478.29 Q308.95 478.27 308.83 478.27 L308.83 478.27 L305.92 478.27  M325.43 489.35 L325.43 489.35 Q323.51 489.35 322.14 488.43 Q320.77 487.5 320.11 485.77 L320.11 485.77 L322.18 485.23 Q322.6 486.29 323.41 486.84 Q324.22 487.4 325.42 487.4 L325.42 487.4 Q327.09 487.4 328.01 486.37 Q328.93 485.34 329.1 483.63 L329.1 483.63 L324.02 483.63 L324.02 481.94 L329.1 481.94 Q328.94 480.27 328.04 479.23 Q327.15 478.18 325.47 478.18 L325.47 478.18 Q324.31 478.18 323.43 478.76 Q322.55 479.35 322.13 480.46 L322.13 480.46 L320.11 479.85 Q320.6 478.17 322.03 477.2 Q323.45 476.24 325.44 476.24 L325.44 476.24 Q327.28 476.24 328.61 477.06 Q329.93 477.89 330.64 479.37 Q331.34 480.86 331.34 482.8 L331.34 482.8 Q331.34 484.73 330.64 486.21 Q329.94 487.68 328.62 488.51 Q327.3 489.35 325.43 489.35 M338.92 489 L336.87 489 L336.87 478.44 L332.55 478.44 L332.55 476.58 L343.25 476.58 L343.25 478.44 L338.92 478.44 L338.92 489 M350.49 489.35 L350.49 489.35 Q348.64 489.35 347.3 488.51 Q345.96 487.67 345.23 486.18 Q344.51 484.7 344.51 482.78 L344.51 482.78 Q344.51 480.82 345.25 479.35 Q345.98 477.88 347.33 477.06 Q348.67 476.24 350.49 476.24 L350.49 476.24 Q352.35 476.24 353.7 477.07 Q355.04 477.9 355.76 479.38 Q356.48 480.86 356.48 482.78 L356.48 482.78 Q356.48 484.72 355.76 486.2 Q355.03 487.68 353.69 488.51 Q352.34 489.35 350.49 489.35 M350.49 487.4 L350.49 487.4 Q352.42 487.4 353.37 486.11 Q354.31 484.83 354.31 482.78 L354.31 482.78 Q354.31 480.67 353.35 479.43 Q352.4 478.18 350.49 478.18 L350.49 478.18 Q349.19 478.18 348.35 478.76 Q347.51 479.35 347.1 480.39 Q346.68 481.42 346.68 482.78 L346.68 482.78 Q346.68 484.87 347.65 486.14 Q348.62 487.4 350.49 487.4 M364.06 489 L362.01 489 L362.01 478.44 L357.69 478.44 L357.69 476.58 L368.38 476.58 L368.38 478.44 L364.06 478.44 L364.06 489  M376.2 491.76 L374.25 491.76 L374.25 487.31 Q375.3 487.31 375.74 486.63 Q376.19 485.94 376.47 484.37 L376.47 484.37 Q376.65 483.38 376.77 482.25 Q376.88 481.12 376.97 479.74 Q377.06 478.35 377.14 476.58 L377.14 476.58 L385.69 476.58 L385.69 487.31 L386.9 487.31 L386.9 491.76 L384.94 491.76 L384.94 489 L376.2 489 L376.2 491.76 M377.4 487.31 L377.4 487.31 L383.65 487.31 L383.65 478.27 L378.99 478.27 Q378.95 479.09 378.9 479.98 Q378.84 480.87 378.76 481.75 Q378.69 482.64 378.59 483.43 Q378.49 484.22 378.37 484.84 L378.37 484.84 Q378.22 485.7 378.02 486.3 Q377.83 486.9 377.4 487.31 M394.58 489.35 L394.58 489.35 Q392.75 489.35 391.39 488.53 Q390.03 487.72 389.27 486.27 Q388.51 484.81 388.51 482.87 L388.51 482.87 Q388.51 480.83 389.26 479.35 Q390 477.86 391.34 477.05 Q392.68 476.24 394.49 476.24 L394.49 476.24 Q396.36 476.24 397.68 477.1 Q399 477.96 399.66 479.56 Q400.32 481.16 400.23 483.37 L400.23 483.37 L390.71 483.37 Q390.82 485.15 391.67 486.19 L391.67 486.19 Q392.66 487.4 394.49 487.4 L394.49 487.4 Q395.72 487.4 396.63 486.84 Q397.54 486.27 398.05 485.22 L398.05 485.22 L400.02 485.89 Q399.3 487.54 397.84 488.44 Q396.39 489.35 394.58 489.35 M390.74 481.72 L398.1 481.72 Q397.94 480.1 397.23 479.2 L397.23 479.2 Q396.33 478.07 394.56 478.07 L394.56 478.07 Q392.66 478.07 391.67 479.29 L391.67 479.29 Q390.92 480.21 390.74 481.72 L390.74 481.72 M404.82 489 L402.77 489 L402.77 476.58 L404.82 476.58 L404.82 481.81 L411.35 481.81 L411.35 476.58 L413.4 476.58 L413.4 489 L411.35 489 L411.35 483.76 L404.82 483.76 L404.82 489 M421.46 489 L416.62 489 L416.6 476.58 L418.66 476.58 L418.66 481.08 L421.34 481.08 Q421.88 481.08 422.45 481.1 Q423.01 481.12 423.42 481.2 L423.42 481.2 Q424.39 481.39 425.11 481.85 Q425.84 482.31 426.24 483.09 Q426.64 483.88 426.64 485.04 L426.64 485.04 Q426.64 486.65 425.81 487.59 Q424.98 488.53 423.63 488.84 L423.63 488.84 Q423.17 488.94 422.58 488.97 Q421.99 489 421.46 489 L421.46 489 M418.66 482.77 L418.66 487.31 L421.49 487.31 Q421.84 487.31 422.26 487.29 Q422.69 487.26 423.02 487.17 L423.02 487.17 Q423.61 487 424.07 486.49 Q424.54 485.99 424.54 485.04 L424.54 485.04 Q424.54 484.09 424.08 483.57 Q423.63 483.05 422.89 482.89 L422.89 482.89 Q422.56 482.81 422.19 482.79 Q421.82 482.77 421.49 482.77 L421.49 482.77 L418.66 482.77"/></g>
</svg>
