<svg xmlns="http://www.w3.org/2000/svg" xmlns:xlink="http://www.w3.org/1999/xlink" width="1200" height="148" viewBox="0 0 1200 148" role="img" aria-labelledby="title description">
<title id="title">Активность — каждый вклад оставляет след. Moritz · Logbook.</title>
<desc id="description">Активность — каждый вклад оставляет след. Moritz · Logbook.</desc>
<style>
.enter { animation: enter .9s cubic-bezier(.2,.8,.2,1) both; }
.delay-1 { animation-delay: .14s; }
.delay-2 { animation-delay: .28s; }
.delay-3 { animation-delay: .42s; }
.art { transform-origin: 80% 55%; animation: settle 4.5s ease-out both; }
.cursor { animation: cursor 1.25s ease-in-out 3; }
.trace { transform-origin: left; animation: trace 2s cubic-bezier(.2,.8,.2,1) both; }
@keyframes enter { from { transform: translateY(12px); } to { transform: translateY(0); } }
@keyframes settle { from { opacity: .75; transform: scale(1.035); } to { opacity: 1; transform: scale(1); } }
@keyframes cursor { 0%, 100% { opacity: 1; } 50% { opacity: .3; } }
@keyframes trace { from { transform: scaleX(0); } to { transform: scaleX(1); } }
@media (prefers-reduced-motion: reduce) { .enter, .art, .cursor, .trace { animation: none !important; transform: none !important; opacity: 1 !important; } }
</style>
<defs><linearGradient id="surface" x2="1" y2="1"><stop stop-color="#182137"/><stop offset="1" stop-color="#0D1117"/></linearGradient></defs><rect x="1" y="1" width="1198" height="146" rx="24" fill="url(#surface)" stroke="#EDF2FA" stroke-opacity=".13"/><defs><linearGradient id="rule"><stop stop-color="#D9B55D"/><stop offset="1" stop-color="#D9B55D" stop-opacity="0"/></linearGradient></defs><g aria-label="Активность" fill="#D9B55D" opacity="1"><path d="M61.61 75.21 L61.61 77 L50 77 L50 75.21 Q50.75 74.74 51.62 74.39 Q52.49 74.04 53.34 73.85 L53.34 73.85 L65.46 43.54 L68.94 43.54 L80.74 73.85 Q81.68 74.04 82.62 74.39 Q83.56 74.74 84.26 75.21 L84.26 75.21 L84.26 77 L69.55 77 L69.55 75.21 Q70.44 74.79 71.48 74.42 Q72.51 74.04 73.45 73.85 L73.45 73.85 L70.73 66.38 L60.29 66.38 L57.52 73.85 Q59.68 74.13 61.61 75.21 L61.61 75.21 M64.66 54.44 L61.42 63.32 L69.74 63.32 L66.69 54.35 L65.79 50.3 L65.7 50.3 L64.66 54.44 M100.34 55.33 L100.34 53.5 L111.1 53.5 L111.1 55.33 Q110.63 55.71 109.95 55.97 Q109.27 56.23 108.14 56.6 L108.14 56.6 Q106.54 58.53 104.85 60.29 Q103.16 62.05 101.56 63.56 L101.56 63.56 Q102.59 64.69 103.67 66 Q104.76 67.32 105.81 68.7 Q106.87 70.09 107.97 71.45 Q109.08 72.82 110.21 74.04 L110.21 74.04 L112.18 75.17 L112.18 77 L104.8 77 L103.3 75.92 Q101.28 73.47 99.98 71.03 Q98.69 68.59 97.38 66.19 L97.38 66.19 L95.5 66.19 L95.5 74.04 Q97 74.46 98.13 75.17 L98.13 75.17 L98.13 77 L85.63 77 L85.63 75.17 Q86.9 74.42 88.73 74.04 L88.73 74.04 L88.73 56.46 Q87.08 56.13 85.63 55.33 L85.63 55.33 L85.63 53.5 L97.61 53.5 L97.61 55.33 Q97.14 55.66 96.69 55.94 Q96.25 56.23 95.5 56.46 L95.5 56.46 L95.5 64.12 L97.66 63.65 Q99.02 62.1 100.38 60.31 Q101.75 58.53 102.88 56.6 L102.88 56.6 Q102.08 56.27 101.51 55.99 Q100.95 55.71 100.34 55.33 L100.34 55.33 M131.31 75.17 L131.31 77 L117.96 77 L117.96 75.17 Q118.67 74.79 119.56 74.51 Q120.45 74.23 121.25 74.04 L121.25 74.04 L121.25 56.18 L117.82 56.18 L115.75 62.66 L113.78 62.66 Q113.54 61.68 113.33 60.46 Q113.12 59.23 112.98 57.99 Q112.84 56.74 112.72 55.57 Q112.6 54.39 112.6 53.5 L112.6 53.5 L136.67 53.5 Q136.67 54.35 136.57 55.52 Q136.48 56.7 136.32 57.94 Q136.15 59.19 135.94 60.43 Q135.73 61.68 135.49 62.66 L135.49 62.66 L133.52 62.66 L131.45 56.18 L128.02 56.18 L128.02 74.04 Q129.1 74.32 129.85 74.56 Q130.6 74.79 131.31 75.17 L131.31 75.17 M138.74 55.33 L138.74 53.5 L151.24 53.5 L151.24 55.33 Q150.72 55.61 150.04 55.9 Q149.36 56.18 148.42 56.46 L148.42 56.46 L148.42 67.04 L147.9 71.41 L148.14 71.41 L149.97 67.88 L158.57 53.5 L167.45 53.5 L167.45 55.33 Q165.95 56.18 164.35 56.46 L164.35 56.46 L164.35 74.04 Q165.24 74.27 166.04 74.53 Q166.84 74.79 167.45 75.17 L167.45 75.17 L167.45 77 L154.95 77 L154.95 75.17 Q156.27 74.42 157.77 74.04 L157.77 74.04 L157.77 62.95 L158.24 59.23 L158.01 59.23 L156.22 62.76 L147.71 77 L138.74 77 L138.74 75.17 Q139.53 74.79 140.29 74.53 Q141.04 74.27 141.84 74.04 L141.84 74.04 L141.84 56.46 Q140 56.18 138.74 55.33 L138.74 55.33 M194.15 70.14 L194.15 70.14 Q194.15 72.02 193.35 73.36 Q192.55 74.7 191.14 75.54 Q189.73 76.39 187.83 76.79 Q185.92 77.19 183.76 77.19 L183.76 77.19 Q182.26 77.19 181.18 77.16 Q180.1 77.14 179.3 77.09 Q178.5 77.05 177.91 77.02 Q177.32 77 176.81 77 L176.81 77 L170.18 77 L170.18 75.17 Q171.64 74.42 173.28 74.04 L173.28 74.04 L173.28 56.46 Q171.5 56.13 170.18 55.33 L170.18 55.33 L170.18 53.5 L176.52 53.5 Q178.78 53.5 180.52 53.41 Q182.26 53.31 184 53.31 L184 53.31 Q188.46 53.31 190.79 54.56 Q193.12 55.8 193.12 58.91 L193.12 58.91 Q193.12 60.03 192.62 60.93 Q192.13 61.82 191.31 62.48 Q190.48 63.13 189.5 63.56 Q188.51 63.98 187.52 64.17 L187.52 64.17 Q188.84 64.26 190.04 64.69 Q191.24 65.11 192.15 65.86 Q193.07 66.61 193.61 67.67 Q194.15 68.73 194.15 70.14 M180.05 66.24 L180.05 74.32 Q180.71 74.46 181.48 74.49 Q182.26 74.51 182.82 74.51 L182.82 74.51 Q184.94 74.51 186.02 73.43 Q187.1 72.35 187.1 70.28 L187.1 70.28 Q187.1 68.26 185.85 67.25 Q184.61 66.24 182.59 66.24 L182.59 66.24 L180.05 66.24 M180.05 56.18 L180.05 64.22 L184.23 63.75 Q184.98 63.28 185.69 62.22 Q186.39 61.16 186.39 59.61 L186.39 59.61 Q186.39 55.99 182.21 55.99 L182.21 55.99 Q181.69 55.99 181.13 56.01 Q180.57 56.04 180.05 56.18 L180.05 56.18 M209.57 75.17 L209.57 77 L197.11 77 L197.11 75.17 Q197.77 74.79 198.57 74.53 Q199.37 74.27 200.21 74.04 L200.21 74.04 L200.21 56.46 Q199.37 56.23 198.57 55.97 Q197.77 55.71 197.11 55.33 L197.11 55.33 L197.11 53.5 L209.57 53.5 L209.57 55.33 Q208.48 55.99 206.98 56.46 L206.98 56.46 L206.98 63.79 L215.72 63.79 L215.72 56.46 Q214.36 56.18 213.14 55.33 L213.14 55.33 L213.14 53.5 L225.59 53.5 L225.59 55.33 Q224.32 56.13 222.49 56.46 L222.49 56.46 L222.49 74.04 Q223.34 74.23 224.14 74.46 Q224.93 74.7 225.59 75.17 L225.59 75.17 L225.59 77 L213.14 77 L213.14 75.17 Q214.36 74.27 215.72 74.04 L215.72 74.04 L215.72 66.47 L206.98 66.47 L206.98 74.04 Q207.78 74.23 208.41 74.51 Q209.05 74.79 209.57 75.17 L209.57 75.17 M228.41 65.25 L228.41 65.25 Q228.41 62.38 229.28 60.1 Q230.15 57.82 231.77 56.23 Q233.39 54.63 235.7 53.78 Q238 52.94 240.91 52.94 L240.91 52.94 Q244.2 52.94 246.58 53.85 Q248.95 54.77 250.48 56.39 Q252.01 58.01 252.71 60.29 Q253.42 62.57 253.42 65.25 L253.42 65.25 Q253.42 68.12 252.57 70.4 Q251.72 72.68 250.1 74.27 Q248.48 75.87 246.15 76.72 Q243.83 77.56 240.91 77.56 L240.91 77.56 Q237.72 77.56 235.37 76.65 Q233.02 75.73 231.47 74.11 Q229.92 72.49 229.16 70.21 Q228.41 67.93 228.41 65.25 M235.7 65.25 L235.7 65.25 Q235.7 67.36 235.96 69.13 Q236.21 70.89 236.87 72.11 Q237.53 73.33 238.66 74.02 Q239.79 74.7 241.57 74.7 L241.57 74.7 Q242.61 74.7 243.45 74.2 Q244.3 73.71 244.91 72.61 Q245.52 71.5 245.83 69.69 Q246.13 67.88 246.13 65.25 L246.13 65.25 Q246.13 63.09 245.87 61.35 Q245.61 59.61 244.98 58.39 Q244.35 57.17 243.26 56.48 Q242.18 55.8 240.54 55.8 L240.54 55.8 Q239.32 55.8 238.42 56.3 Q237.53 56.79 236.92 57.89 Q236.31 59 236 60.81 Q235.7 62.62 235.7 65.25 M275.55 72.21 L276.31 73.19 Q275.98 74.13 275.22 74.91 Q274.47 75.68 273.41 76.3 Q272.36 76.91 271.02 77.23 Q269.68 77.56 268.22 77.56 L268.22 77.56 Q265.12 77.56 262.89 76.69 Q260.65 75.83 259.2 74.2 Q257.74 72.58 257.04 70.3 Q256.33 68.02 256.33 65.25 L256.33 65.25 Q256.33 59.28 259.6 56.11 Q262.86 52.94 268.88 52.94 L268.88 52.94 Q271.18 52.94 273.11 53.43 Q275.04 53.92 276.31 54.58 L276.31 54.58 Q276.21 55.38 276.05 56.34 Q275.88 57.31 275.67 58.27 Q275.46 59.23 275.18 60.15 Q274.9 61.07 274.61 61.68 L274.61 61.68 L272.31 61.68 L270.34 56.09 Q270.01 55.85 269.63 55.73 Q269.25 55.61 268.5 55.61 L268.5 55.61 Q267.28 55.61 266.39 56.06 Q265.5 56.51 264.86 57.59 Q264.23 58.67 263.92 60.46 Q263.62 62.24 263.62 64.87 L263.62 64.87 Q263.62 66.8 264.04 68.42 Q264.46 70.04 265.33 71.24 Q266.2 72.44 267.52 73.12 Q268.83 73.8 270.62 73.8 L270.62 73.8 Q272.26 73.8 273.49 73.33 Q274.71 72.86 275.55 72.21 L275.55 72.21 M297.17 75.17 L297.17 77 L283.82 77 L283.82 75.17 Q284.53 74.79 285.42 74.51 Q286.32 74.23 287.12 74.04 L287.12 74.04 L287.12 56.18 L283.68 56.18 L281.62 62.66 L279.64 62.66 Q279.41 61.68 279.2 60.46 Q278.98 59.23 278.84 57.99 Q278.7 56.74 278.58 55.57 Q278.47 54.39 278.47 53.5 L278.47 53.5 L302.53 53.5 Q302.53 54.35 302.44 55.52 Q302.34 56.7 302.18 57.94 Q302.01 59.19 301.8 60.43 Q301.59 61.68 301.36 62.66 L301.36 62.66 L299.38 62.66 L297.31 56.18 L293.88 56.18 L293.88 74.04 Q294.96 74.32 295.72 74.56 Q296.47 74.79 297.17 75.17 L297.17 75.17 M314.47 56.46 L314.47 62.85 Q315.27 62.76 316.58 62.62 Q317.9 62.48 319.78 62.48 L319.78 62.48 Q323.63 62.48 325.94 64.24 Q328.24 66 328.24 69.53 L328.24 69.53 Q328.24 71.41 327.49 72.84 Q326.74 74.27 325.42 75.24 Q324.1 76.2 322.29 76.69 Q320.49 77.19 318.37 77.19 L318.37 77.19 Q317.71 77.19 316.51 77.16 Q315.31 77.14 313.93 77.09 Q312.54 77.05 311.2 77.02 Q309.86 77 308.97 77 L308.97 77 L304.6 77 L304.6 75.17 Q305.3 74.79 306.1 74.53 Q306.9 74.27 307.7 74.04 L307.7 74.04 L307.7 56.46 Q306.81 56.27 306.06 55.99 Q305.3 55.71 304.6 55.33 L304.6 55.33 L304.6 53.5 L317.29 53.5 L317.29 55.33 Q316.16 55.99 314.47 56.46 L314.47 56.46 M314.47 65.39 L314.47 74.32 Q314.94 74.42 315.48 74.46 Q316.02 74.51 316.54 74.51 L316.54 74.51 Q317.52 74.51 318.32 74.27 Q319.12 74.04 319.69 73.45 Q320.25 72.86 320.56 71.9 Q320.86 70.94 320.86 69.48 L320.86 69.48 Q320.86 68.21 320.56 67.39 Q320.25 66.57 319.71 66.07 Q319.17 65.58 318.44 65.37 Q317.71 65.16 316.87 65.16 L316.87 65.16 Q316.3 65.16 315.67 65.2 Q315.03 65.25 314.47 65.39 L314.47 65.39"/></g><rect x="50" y="91" width="470" height="1.5" fill="url(#rule)"/><g aria-label="каждый вклад оставляет след" fill="#EDF2FA99" opacity="1"><path d="M53.2 118 L51.39 118 L51.4 107.2 L53.2 107.2 L53.2 112.4 L57.73 107.2 L60.04 107.2 L55.27 112.6 L60.6 118 L58.11 118 L53.2 112.8 L53.2 118 M64.67 118.3 L64.67 118.3 Q63.46 118.3 62.65 117.86 Q61.83 117.41 61.42 116.68 Q61 115.95 61 115.08 L61 115.08 Q61 114.23 61.33 113.61 Q61.65 112.98 62.24 112.56 Q62.83 112.15 63.65 111.91 L63.65 111.91 Q64.42 111.7 65.38 111.55 Q66.33 111.39 67.31 111.26 L67.31 111.26 Q67.93 111.18 68.5 111.1 L68.5 111.1 Q68.47 109.87 67.93 109.25 L67.93 109.25 Q67.32 108.56 65.84 108.56 L65.84 108.56 Q64.86 108.56 64.13 109 Q63.39 109.45 63.09 110.45 L63.09 110.45 L61.4 109.94 Q61.79 108.52 62.91 107.71 Q64.03 106.9 65.86 106.9 L65.86 106.9 Q67.33 106.9 68.39 107.42 Q69.44 107.95 69.9 109.01 L69.9 109.01 Q70.13 109.51 70.19 110.09 Q70.25 110.68 70.25 111.32 L70.25 111.32 L70.25 118 L68.67 118 L68.67 116.32 Q68.13 117.14 67.34 117.63 L67.34 117.63 Q66.24 118.3 64.67 118.3 M64.94 116.81 L64.94 116.81 Q65.9 116.81 66.61 116.47 Q67.31 116.12 67.74 115.56 Q68.17 114.99 68.3 114.32 L68.3 114.32 Q68.45 113.82 68.47 113.2 L68.47 113.2 Q68.47 112.87 68.48 112.62 L68.48 112.62 Q67.93 112.69 67.39 112.76 L67.39 112.76 Q66.55 112.87 65.8 113 Q65.05 113.12 64.45 113.29 L64.45 113.29 Q64.01 113.43 63.63 113.65 Q63.24 113.87 63.01 114.22 Q62.77 114.56 62.77 115.07 L62.77 115.07 Q62.77 115.51 63 115.91 Q63.22 116.31 63.7 116.56 Q64.17 116.81 64.94 116.81 M73.72 118 L71.65 118 L76.01 112.6 L71.86 107.2 L73.84 107.2 L77.85 112.5 L77.85 107.2 L79.47 107.2 L79.47 112.5 L83.48 107.2 L85.46 107.2 L81.31 112.6 L85.67 118 L83.6 118 L79.47 112.7 L79.47 118 L77.85 118 L77.85 112.7 L73.72 118 M87.77 120.4 L86.07 120.4 L86.07 116.53 Q86.98 116.53 87.37 115.94 Q87.76 115.34 88 113.97 L88 113.97 Q88.16 113.11 88.26 112.13 Q88.36 111.15 88.44 109.94 Q88.51 108.74 88.58 107.2 L88.58 107.2 L96.02 107.2 L96.02 116.53 L97.07 116.53 L97.07 120.4 L95.37 120.4 L95.37 118 L87.77 118 L87.77 120.4 M88.81 116.53 L88.81 116.53 L94.24 116.53 L94.24 108.67 L90.19 108.67 Q90.16 109.38 90.11 110.16 Q90.06 110.93 90 111.7 Q89.93 112.47 89.84 113.16 Q89.76 113.84 89.65 114.38 L89.65 114.38 Q89.52 115.13 89.35 115.65 Q89.18 116.17 88.81 116.53 M102.6 118 L99.07 118 L99.06 107.2 L100.85 107.2 L100.85 111.11 L102.5 111.11 Q102.97 111.11 103.46 111.13 Q103.95 111.15 104.31 111.22 L104.31 111.22 Q105.15 111.39 105.78 111.79 Q106.41 112.19 106.76 112.87 Q107.11 113.55 107.11 114.56 L107.11 114.56 Q107.11 115.96 106.39 116.78 Q105.66 117.59 104.49 117.86 L104.49 117.86 Q104.09 117.95 103.58 117.97 Q103.06 118 102.6 118 L102.6 118 M100.85 112.58 L100.85 116.53 L102.63 116.53 Q102.93 116.53 103.3 116.51 Q103.67 116.49 103.96 116.41 L103.96 116.41 Q104.47 116.26 104.88 115.82 Q105.28 115.38 105.28 114.56 L105.28 114.56 Q105.28 113.73 104.89 113.28 Q104.49 112.83 103.85 112.69 L103.85 112.69 Q103.56 112.62 103.24 112.6 Q102.92 112.58 102.63 112.58 L102.63 112.58 L100.85 112.58 M110.13 118 L108.35 118 L108.35 107.2 L110.13 107.2 L110.13 118 M117.58 105.94 L117.58 105.94 Q116.83 105.94 116.21 105.57 Q115.59 105.2 115.22 104.58 Q114.85 103.97 114.85 103.21 L114.85 103.21 L116.29 103.21 Q116.29 103.74 116.67 104.12 Q117.05 104.5 117.58 104.5 L117.58 104.5 Q118.12 104.5 118.5 104.12 Q118.87 103.74 118.87 103.21 L118.87 103.21 L120.31 103.21 Q120.31 103.97 119.95 104.58 Q119.58 105.2 118.95 105.57 Q118.33 105.94 117.58 105.94 M120.31 107.2 L121.77 107.2 L121.77 118 L120.05 118 L120.05 110.04 L114.39 118 L112.92 118 L112.92 107.2 L114.64 107.2 L114.64 115.05 L120.31 107.2  M133.68 118 L128.56 118 L128.56 107.2 L133.16 107.2 Q133.57 107.2 134.05 107.25 Q134.52 107.29 134.91 107.4 L134.91 107.4 Q135.78 107.63 136.34 108.34 Q136.91 109.06 136.91 110.15 L136.91 110.15 Q136.91 110.76 136.72 111.21 Q136.54 111.66 136.2 111.99 L136.2 111.99 Q136.05 112.14 135.87 112.26 Q135.69 112.38 135.51 112.45 L135.51 112.45 Q135.86 112.51 136.22 112.72 L136.22 112.72 Q136.79 113.03 137.12 113.59 Q137.44 114.15 137.44 115.02 L137.44 115.02 Q137.44 116.12 136.91 116.83 Q136.38 117.55 135.45 117.82 L135.45 117.82 Q135.06 117.93 134.59 117.97 Q134.12 118 133.68 118 L133.68 118 M130.36 113.34 L130.36 116.55 L133.58 116.55 Q133.79 116.55 134.09 116.51 Q134.38 116.47 134.61 116.41 L134.61 116.41 Q135.13 116.26 135.37 115.85 Q135.6 115.44 135.6 114.96 L135.6 114.96 Q135.6 114.32 135.25 113.92 Q134.89 113.52 134.31 113.42 L134.31 113.42 Q134.1 113.36 133.85 113.35 Q133.61 113.34 133.42 113.34 L133.42 113.34 L130.36 113.34 M130.36 108.67 L130.36 111.87 L133.04 111.87 Q133.32 111.87 133.63 111.83 Q133.94 111.8 134.17 111.71 L134.17 111.71 Q134.63 111.54 134.84 111.14 Q135.06 110.75 135.06 110.28 L135.06 110.28 Q135.06 109.76 134.82 109.36 Q134.59 108.97 134.11 108.82 L134.11 108.82 Q133.79 108.7 133.4 108.69 Q133 108.67 132.89 108.67 L132.89 108.67 L130.36 108.67 M141.24 118 L139.43 118 L139.44 107.2 L141.24 107.2 L141.24 112.4 L145.77 107.2 L148.08 107.2 L143.31 112.6 L148.64 118 L146.15 118 L141.24 112.8 L141.24 118 M148.44 118 L148.44 118 L148.44 116.47 Q149.04 116.58 149.36 116.42 Q149.67 116.27 149.83 115.88 Q149.98 115.48 150.08 114.88 L150.08 114.88 Q150.25 113.93 150.38 112.76 Q150.5 111.59 150.61 110.19 Q150.71 108.8 150.8 107.2 L150.8 107.2 L158.35 107.2 L158.35 118 L156.57 118 L156.57 108.89 L152.42 108.89 Q152.36 109.81 152.28 110.78 Q152.19 111.75 152.1 112.67 Q152.01 113.58 151.91 114.36 Q151.8 115.15 151.68 115.72 L151.68 115.72 Q151.49 116.7 151.15 117.28 Q150.81 117.87 150.17 118.05 Q149.53 118.22 148.44 118 M164.22 118.3 L164.22 118.3 Q163.01 118.3 162.19 117.86 Q161.38 117.41 160.97 116.68 Q160.55 115.95 160.55 115.08 L160.55 115.08 Q160.55 114.23 160.88 113.61 Q161.2 112.98 161.79 112.56 Q162.38 112.15 163.2 111.91 L163.2 111.91 Q163.97 111.7 164.93 111.55 Q165.88 111.39 166.86 111.26 L166.86 111.26 Q167.48 111.18 168.05 111.1 L168.05 111.1 Q168.02 109.87 167.48 109.25 L167.48 109.25 Q166.87 108.56 165.39 108.56 L165.39 108.56 Q164.41 108.56 163.68 109 Q162.94 109.45 162.64 110.45 L162.64 110.45 L160.95 109.94 Q161.34 108.52 162.46 107.71 Q163.58 106.9 165.41 106.9 L165.41 106.9 Q166.88 106.9 167.94 107.42 Q168.99 107.95 169.45 109.01 L169.45 109.01 Q169.68 109.51 169.74 110.09 Q169.8 110.68 169.8 111.32 L169.8 111.32 L169.8 118 L168.22 118 L168.22 116.32 Q167.68 117.14 166.89 117.63 L166.89 117.63 Q165.79 118.3 164.22 118.3 M164.49 116.81 L164.49 116.81 Q165.45 116.81 166.16 116.47 Q166.86 116.12 167.29 115.56 Q167.72 114.99 167.85 114.32 L167.85 114.32 Q168 113.82 168.02 113.2 L168.02 113.2 Q168.02 112.87 168.03 112.62 L168.03 112.62 Q167.48 112.69 166.94 112.76 L166.94 112.76 Q166.1 112.87 165.35 113 Q164.6 113.12 164 113.29 L164 113.29 Q163.56 113.43 163.18 113.65 Q162.79 113.87 162.56 114.22 Q162.32 114.56 162.32 115.07 L162.32 115.07 Q162.32 115.51 162.54 115.91 Q162.77 116.31 163.25 116.56 Q163.72 116.81 164.49 116.81 M173.3 120.4 L171.6 120.4 L171.6 116.53 Q172.51 116.53 172.9 115.94 Q173.29 115.34 173.53 113.97 L173.53 113.97 Q173.69 113.11 173.79 112.13 Q173.89 111.15 173.97 109.94 Q174.04 108.74 174.11 107.2 L174.11 107.2 L181.55 107.2 L181.55 116.53 L182.6 116.53 L182.6 120.4 L180.9 120.4 L180.9 118 L173.3 118 L173.3 120.4 M174.34 116.53 L174.34 116.53 L179.77 116.53 L179.77 108.67 L175.72 108.67 Q175.69 109.38 175.64 110.16 Q175.59 110.93 175.53 111.7 Q175.46 112.47 175.38 113.16 Q175.29 113.84 175.18 114.38 L175.18 114.38 Q175.05 115.13 174.88 115.65 Q174.71 116.17 174.34 116.53  M193.2 118.3 L193.2 118.3 Q191.59 118.3 190.42 117.57 Q189.26 116.84 188.63 115.55 Q188 114.26 188 112.59 L188 112.59 Q188 110.89 188.64 109.61 Q189.28 108.33 190.45 107.61 Q191.62 106.9 193.2 106.9 L193.2 106.9 Q194.82 106.9 195.99 107.63 Q197.16 108.35 197.78 109.64 Q198.41 110.92 198.41 112.59 L198.41 112.59 Q198.41 114.28 197.78 115.56 Q197.15 116.85 195.98 117.58 Q194.81 118.3 193.2 118.3 M193.2 116.61 L193.2 116.61 Q194.88 116.61 195.7 115.49 Q196.52 114.37 196.52 112.59 L196.52 112.59 Q196.52 110.76 195.69 109.67 Q194.86 108.59 193.2 108.59 L193.2 108.59 Q192.07 108.59 191.34 109.1 Q190.61 109.61 190.25 110.51 Q189.89 111.41 189.89 112.59 L189.89 112.59 Q189.89 114.41 190.73 115.51 Q191.57 116.61 193.2 116.61 M205.16 118.3 L205.16 118.3 Q203.52 118.3 202.37 117.56 Q201.23 116.83 200.63 115.54 Q200.03 114.25 200.01 112.6 L200.01 112.6 Q200.03 110.91 200.64 109.63 Q201.26 108.34 202.41 107.62 Q203.56 106.9 205.18 106.9 L205.18 106.9 Q206.89 106.9 208.12 107.74 Q209.36 108.58 209.78 110.04 L209.78 110.04 L208.02 110.57 Q207.68 109.63 206.91 109.11 Q206.15 108.59 205.16 108.59 L205.16 108.59 Q204.05 108.59 203.33 109.11 Q202.61 109.62 202.26 110.53 Q201.91 111.43 201.9 112.6 L201.9 112.6 Q201.92 114.4 202.73 115.5 Q203.55 116.61 205.16 116.61 L205.16 116.61 Q206.22 116.61 206.92 116.13 Q207.62 115.64 207.98 114.72 L207.98 114.72 L209.78 115.19 Q209.22 116.7 208.03 117.5 Q206.84 118.3 205.16 118.3 M216.27 118 L214.49 118 L214.49 108.82 L210.73 108.82 L210.73 107.2 L220.03 107.2 L220.03 108.82 L216.27 108.82 L216.27 118 M224.65 118.3 L224.65 118.3 Q223.44 118.3 222.63 117.86 Q221.81 117.41 221.4 116.68 Q220.98 115.95 220.98 115.08 L220.98 115.08 Q220.98 114.23 221.31 113.61 Q221.63 112.98 222.22 112.56 Q222.81 112.15 223.63 111.91 L223.63 111.91 Q224.4 111.7 225.36 111.55 Q226.31 111.39 227.29 111.26 L227.29 111.26 Q227.91 111.18 228.48 111.1 L228.48 111.1 Q228.45 109.87 227.91 109.25 L227.91 109.25 Q227.3 108.56 225.82 108.56 L225.82 108.56 Q224.84 108.56 224.11 109 Q223.37 109.45 223.07 110.45 L223.07 110.45 L221.38 109.94 Q221.77 108.52 222.89 107.71 Q224.01 106.9 225.84 106.9 L225.84 106.9 Q227.31 106.9 228.37 107.42 Q229.42 107.95 229.88 109.01 L229.88 109.01 Q230.11 109.51 230.17 110.09 Q230.23 110.68 230.23 111.32 L230.23 111.32 L230.23 118 L228.65 118 L228.65 116.32 Q228.11 117.14 227.32 117.63 L227.32 117.63 Q226.22 118.3 224.65 118.3 M224.92 116.81 L224.92 116.81 Q225.88 116.81 226.59 116.47 Q227.29 116.12 227.72 115.56 Q228.15 114.99 228.28 114.32 L228.28 114.32 Q228.43 113.82 228.45 113.2 L228.45 113.2 Q228.45 112.87 228.46 112.62 L228.46 112.62 Q227.91 112.69 227.37 112.76 L227.37 112.76 Q226.53 112.87 225.78 113 Q225.03 113.12 224.43 113.29 L224.43 113.29 Q223.99 113.43 223.61 113.65 Q223.22 113.87 222.99 114.22 Q222.75 114.56 222.75 115.07 L222.75 115.07 Q222.75 115.51 222.97 115.91 Q223.2 116.31 223.68 116.56 Q224.15 116.81 224.92 116.81 M237.94 118 L232.82 118 L232.82 107.2 L237.42 107.2 Q237.83 107.2 238.31 107.25 Q238.78 107.29 239.17 107.4 L239.17 107.4 Q240.04 107.63 240.61 108.34 Q241.17 109.06 241.17 110.15 L241.17 110.15 Q241.17 110.76 240.99 111.21 Q240.8 111.66 240.46 111.99 L240.46 111.99 Q240.31 112.14 240.13 112.26 Q239.95 112.38 239.77 112.45 L239.77 112.45 Q240.12 112.51 240.48 112.72 L240.48 112.72 Q241.05 113.03 241.38 113.59 Q241.7 114.15 241.7 115.02 L241.7 115.02 Q241.7 116.12 241.17 116.83 Q240.64 117.55 239.71 117.82 L239.71 117.82 Q239.32 117.93 238.85 117.97 Q238.38 118 237.94 118 L237.94 118 M234.62 113.34 L234.62 116.55 L237.84 116.55 Q238.05 116.55 238.34 116.51 Q238.64 116.47 238.87 116.41 L238.87 116.41 Q239.39 116.26 239.63 115.85 Q239.86 115.44 239.86 114.96 L239.86 114.96 Q239.86 114.32 239.5 113.92 Q239.15 113.52 238.57 113.42 L238.57 113.42 Q238.36 113.36 238.12 113.35 Q237.87 113.34 237.68 113.34 L237.68 113.34 L234.62 113.34 M234.62 108.67 L234.62 111.87 L237.3 111.87 Q237.58 111.87 237.89 111.83 Q238.2 111.8 238.43 111.71 L238.43 111.71 Q238.89 111.54 239.11 111.14 Q239.32 110.75 239.32 110.28 L239.32 110.28 Q239.32 109.76 239.09 109.36 Q238.85 108.97 238.37 108.82 L238.37 108.82 Q238.05 108.7 237.66 108.69 Q237.26 108.67 237.15 108.67 L237.15 108.67 L234.62 108.67 M242.7 118 L242.7 118 L242.7 116.47 Q243.3 116.58 243.62 116.42 Q243.93 116.27 244.09 115.88 Q244.24 115.48 244.34 114.88 L244.34 114.88 Q244.51 113.93 244.64 112.76 Q244.76 111.59 244.87 110.19 Q244.97 108.8 245.06 107.2 L245.06 107.2 L252.61 107.2 L252.61 118 L250.83 118 L250.83 108.89 L246.68 108.89 Q246.62 109.81 246.54 110.78 Q246.45 111.75 246.36 112.67 Q246.27 113.58 246.17 114.36 Q246.06 115.15 245.94 115.72 L245.94 115.72 Q245.75 116.7 245.41 117.28 Q245.07 117.87 244.43 118.05 Q243.79 118.22 242.7 118 M263.87 118 L262.08 118 L262.08 114.09 L259.75 114.09 Q259.53 114.09 259.29 114.08 L259.29 114.08 L256.73 118 L254.81 118 L257.51 113.85 Q256.61 113.59 255.95 112.92 L255.95 112.92 Q255.14 112.11 255.14 110.68 L255.14 110.68 Q255.14 109.29 255.9 108.44 Q256.65 107.6 257.76 107.35 L257.76 107.35 Q258.26 107.23 258.78 107.22 Q259.29 107.2 259.65 107.2 L259.65 107.2 L263.86 107.2 L263.87 118 M259.62 112.62 L259.62 112.62 L262.08 112.62 L262.08 108.67 L259.62 108.67 Q259.39 108.67 259.02 108.69 Q258.64 108.71 258.3 108.81 L258.3 108.81 Q257.98 108.9 257.68 109.14 Q257.37 109.38 257.17 109.76 Q256.97 110.14 256.97 110.66 L256.97 110.66 Q256.97 111.41 257.39 111.88 Q257.81 112.34 258.41 112.5 L258.41 112.5 Q258.74 112.58 259.06 112.6 Q259.39 112.62 259.62 112.62 M271.35 118.3 L271.35 118.3 Q269.76 118.3 268.57 117.59 Q267.39 116.89 266.73 115.63 Q266.07 114.36 266.07 112.67 L266.07 112.67 Q266.07 110.9 266.72 109.61 Q267.37 108.31 268.53 107.61 Q269.7 106.9 271.27 106.9 L271.27 106.9 Q272.9 106.9 274.04 107.65 Q275.19 108.4 275.76 109.79 Q276.34 111.18 276.26 113.1 L276.26 113.1 L267.98 113.1 Q268.08 114.65 268.82 115.56 L268.82 115.56 Q269.68 116.61 271.27 116.61 L271.27 116.61 Q272.34 116.61 273.13 116.12 Q273.92 115.63 274.37 114.71 L274.37 114.71 L276.08 115.3 Q275.45 116.73 274.19 117.52 Q272.92 118.3 271.35 118.3 M268.01 111.67 L274.41 111.67 Q274.27 110.26 273.65 109.48 L273.65 109.48 Q272.87 108.5 271.33 108.5 L271.33 108.5 Q269.68 108.5 268.82 109.56 L268.82 109.56 Q268.17 110.36 268.01 111.67 L268.01 111.67 M282.92 118 L281.14 118 L281.14 108.82 L277.38 108.82 L277.38 107.2 L286.68 107.2 L286.68 108.82 L282.92 108.82 L282.92 118  M297.13 118.3 L297.13 118.3 Q295.49 118.3 294.35 117.56 Q293.2 116.83 292.6 115.54 Q292 114.25 291.98 112.6 L291.98 112.6 Q292 110.91 292.62 109.63 Q293.23 108.34 294.38 107.62 Q295.53 106.9 297.15 106.9 L297.15 106.9 Q298.86 106.9 300.1 107.74 Q301.33 108.58 301.75 110.04 L301.75 110.04 L299.99 110.57 Q299.65 109.63 298.89 109.11 Q298.12 108.59 297.13 108.59 L297.13 108.59 Q296.02 108.59 295.3 109.11 Q294.58 109.62 294.23 110.53 Q293.88 111.43 293.87 112.6 L293.87 112.6 Q293.89 114.4 294.71 115.5 Q295.52 116.61 297.13 116.61 L297.13 116.61 Q298.19 116.61 298.89 116.13 Q299.59 115.64 299.95 114.72 L299.95 114.72 L301.75 115.19 Q301.19 116.7 300 117.5 Q298.81 118.3 297.13 118.3 M302.5 118 L302.5 118 L302.5 116.47 Q303.1 116.58 303.42 116.42 Q303.73 116.27 303.89 115.88 Q304.04 115.48 304.14 114.88 L304.14 114.88 Q304.31 113.93 304.44 112.76 Q304.56 111.59 304.67 110.19 Q304.77 108.8 304.86 107.2 L304.86 107.2 L312.41 107.2 L312.41 118 L310.63 118 L310.63 108.89 L306.48 108.89 Q306.42 109.81 306.34 110.78 Q306.25 111.75 306.16 112.67 Q306.07 113.58 305.97 114.36 Q305.86 115.15 305.74 115.72 L305.74 115.72 Q305.55 116.7 305.21 117.28 Q304.87 117.87 304.23 118.05 Q303.59 118.22 302.5 118 M319.89 118.3 L319.89 118.3 Q318.3 118.3 317.12 117.59 Q315.93 116.89 315.27 115.63 Q314.61 114.36 314.61 112.67 L314.61 112.67 Q314.61 110.9 315.26 109.61 Q315.91 108.31 317.07 107.61 Q318.24 106.9 319.81 106.9 L319.81 106.9 Q321.44 106.9 322.58 107.65 Q323.73 108.4 324.31 109.79 Q324.88 111.18 324.8 113.1 L324.8 113.1 L316.52 113.1 Q316.62 114.65 317.36 115.56 L317.36 115.56 Q318.22 116.61 319.81 116.61 L319.81 116.61 Q320.88 116.61 321.67 116.12 Q322.46 115.63 322.91 114.71 L322.91 114.71 L324.62 115.3 Q323.99 116.73 322.73 117.52 Q321.46 118.3 319.89 118.3 M316.55 111.67 L322.95 111.67 Q322.81 110.26 322.19 109.48 L322.19 109.48 Q321.41 108.5 319.87 108.5 L319.87 108.5 Q318.22 108.5 317.36 109.56 L317.36 109.56 Q316.71 110.36 316.55 111.67 L316.55 111.67 M327.92 120.4 L326.22 120.4 L326.22 116.53 Q327.13 116.53 327.52 115.94 Q327.91 115.34 328.15 113.97 L328.15 113.97 Q328.31 113.11 328.41 112.13 Q328.51 111.15 328.58 109.94 Q328.66 108.74 328.73 107.2 L328.73 107.2 L336.17 107.2 L336.17 116.53 L337.22 116.53 L337.22 120.4 L335.52 120.4 L335.52 118 L327.92 118 L327.92 120.4 M328.96 116.53 L328.96 116.53 L334.39 116.53 L334.39 108.67 L330.34 108.67 Q330.31 109.38 330.26 110.16 Q330.21 110.93 330.14 111.7 Q330.08 112.47 330 113.16 Q329.91 113.84 329.8 114.38 L329.8 114.38 Q329.67 115.13 329.5 115.65 Q329.33 116.17 328.96 116.53"/></g><g aria-label="MORITZ · LOGBOOK" fill="#EDF2FA99" opacity="1"><path d="M858.86 79 L857.5 79 L857.5 67.48 L858.8 67.48 L863.15 76.66 L867.48 67.48 L868.79 67.48 L868.79 78.99 L867.44 78.99 L867.44 70.61 L863.53 79 L862.77 79 L858.86 70.61 L858.86 79 M878.77 79.24 L878.77 79.24 Q877.05 79.24 875.85 78.48 Q874.65 77.72 874.02 76.37 Q873.39 75.02 873.39 73.24 L873.39 73.24 Q873.39 71.46 874.02 70.11 Q874.65 68.76 875.85 68 Q877.05 67.24 878.77 67.24 L878.77 67.24 Q880.5 67.24 881.7 68 Q882.9 68.76 883.52 70.11 Q884.14 71.46 884.14 73.24 L884.14 73.24 Q884.14 75.02 883.52 76.37 Q882.9 77.72 881.7 78.48 Q880.5 79.24 878.77 79.24 M878.77 77.88 L878.77 77.88 Q880.06 77.89 880.92 77.3 Q881.78 76.71 882.2 75.66 Q882.63 74.62 882.63 73.24 L882.63 73.24 Q882.63 71.86 882.2 70.82 Q881.78 69.78 880.92 69.19 Q880.06 68.61 878.77 68.6 L878.77 68.6 Q877.48 68.59 876.63 69.18 Q875.78 69.76 875.34 70.81 Q874.91 71.86 874.9 73.24 L874.9 73.24 Q874.9 74.62 875.33 75.66 Q875.76 76.7 876.62 77.28 Q877.48 77.87 878.77 77.88 M890.17 79 L888.74 79 L888.74 67.48 L893.3 67.48 Q893.46 67.48 893.7 67.49 Q893.93 67.5 894.14 67.54 L894.14 67.54 Q895.08 67.69 895.72 68.18 Q896.35 68.68 896.67 69.44 Q896.99 70.19 896.99 71.11 L896.99 71.11 Q896.99 72.45 896.3 73.42 L896.3 73.42 Q895.81 74.11 895.01 74.44 L895.01 74.44 L897.23 79 L895.6 79 L893.54 74.74 L890.17 74.74 L890.17 79 M890.17 68.83 L890.17 73.39 L893.25 73.39 Q893.4 73.39 893.6 73.38 Q893.79 73.36 893.97 73.32 L893.97 73.32 Q894.52 73.19 894.87 72.85 Q895.22 72.51 895.38 72.05 Q895.54 71.59 895.54 71.11 Q895.54 70.63 895.38 70.17 Q895.22 69.71 894.87 69.37 Q894.52 69.02 893.97 68.9 L893.97 68.9 Q893.79 68.86 893.6 68.84 Q893.4 68.83 893.25 68.83 L893.25 68.83 L890.17 68.83 M903.58 79 L902.15 79 L902.15 67.48 L903.58 67.48 L903.58 79 M913.37 79 L911.94 79 L911.94 68.83 L908.02 68.83 L908.02 67.48 L917.3 67.48 L917.3 68.83 L913.37 68.83 L913.37 79 M929.66 79 L921.26 79 L921.26 78.74 L927.34 68.83 L921.5 68.83 L921.5 67.48 L929.74 67.48 L929.74 67.75 L923.69 77.65 L929.66 77.65 L929.66 79  M941.69 74.92 L941.69 74.92 Q941.28 74.92 940.99 74.64 Q940.7 74.37 940.7 73.96 L940.7 73.96 Q940.7 73.54 940.99 73.27 Q941.28 73 941.69 73 L941.69 73 Q942.07 73 942.35 73.27 Q942.62 73.54 942.62 73.96 L942.62 73.96 Q942.62 74.37 942.35 74.64 Q942.07 74.92 941.69 74.92  M960.83 79 L954.06 79 L954.06 67.48 L955.49 67.48 L955.49 77.65 L960.83 77.65 L960.83 79 M969.61 79.24 L969.61 79.24 Q967.89 79.24 966.69 78.48 Q965.49 77.72 964.86 76.37 Q964.23 75.02 964.23 73.24 L964.23 73.24 Q964.23 71.46 964.86 70.11 Q965.49 68.76 966.69 68 Q967.89 67.24 969.61 67.24 L969.61 67.24 Q971.34 67.24 972.54 68 Q973.74 68.76 974.36 70.11 Q974.98 71.46 974.98 73.24 L974.98 73.24 Q974.98 75.02 974.36 76.37 Q973.74 77.72 972.54 78.48 Q971.34 79.24 969.61 79.24 M969.61 77.88 L969.61 77.88 Q970.9 77.89 971.76 77.3 Q972.62 76.71 973.04 75.66 Q973.47 74.62 973.47 73.24 L973.47 73.24 Q973.47 71.86 973.04 70.82 Q972.62 69.78 971.76 69.19 Q970.9 68.61 969.61 68.6 L969.61 68.6 Q968.32 68.59 967.47 69.18 Q966.62 69.76 966.18 70.81 Q965.75 71.86 965.74 73.24 L965.74 73.24 Q965.74 74.62 966.17 75.66 Q966.6 76.7 967.46 77.28 Q968.32 77.87 969.61 77.88 M984.25 79.24 L984.25 79.24 Q983.06 79.24 982.09 78.82 Q981.11 78.41 980.41 77.63 Q979.7 76.85 979.32 75.74 Q978.94 74.63 978.94 73.24 L978.94 73.24 Q978.94 71.4 979.6 70.06 Q980.26 68.71 981.45 67.98 Q982.64 67.25 984.25 67.25 L984.25 67.25 Q986.18 67.25 987.37 68.15 Q988.55 69.05 989 70.61 L989 70.61 L987.56 70.9 Q987.2 69.86 986.38 69.23 Q985.55 68.61 984.32 68.61 L984.32 68.61 Q983.03 68.6 982.18 69.18 Q981.33 69.76 980.9 70.81 Q980.46 71.86 980.46 73.24 L980.46 73.24 Q980.45 74.62 980.88 75.66 Q981.31 76.7 982.17 77.28 Q983.03 77.87 984.32 77.88 L984.32 77.88 Q985.43 77.89 986.19 77.46 Q986.95 77.02 987.37 76.21 Q987.78 75.39 987.87 74.25 L987.87 74.25 L985.42 74.25 L985.42 73.07 L989.38 73.07 Q989.4 73.23 989.4 73.45 Q989.41 73.67 989.41 73.75 L989.41 73.75 Q989.41 75.33 988.82 76.57 Q988.23 77.82 987.08 78.53 Q985.94 79.24 984.25 79.24 M998.9 79 L994.01 79 L994.01 67.48 L998.5 67.48 Q999.53 67.48 1000.26 67.9 Q1000.99 68.33 1001.38 69.02 Q1001.77 69.71 1001.77 70.51 L1001.77 70.51 Q1001.77 71.45 1001.29 72.15 L1001.29 72.15 Q1000.97 72.62 1000.49 72.9 L1000.49 72.9 Q1001.24 73.22 1001.7 73.82 L1001.7 73.82 Q1002.32 74.61 1002.32 75.7 L1002.32 75.7 Q1002.32 76.71 1001.91 77.45 Q1001.5 78.18 1000.72 78.59 Q999.95 79 998.9 79 L998.9 79 M995.45 73.63 L995.45 77.64 L998.62 77.64 Q999.26 77.64 999.77 77.4 Q1000.27 77.17 1000.56 76.74 Q1000.86 76.3 1000.86 75.7 L1000.86 75.7 Q1000.86 75.11 1000.6 74.65 Q1000.34 74.18 999.87 73.91 Q999.4 73.63 998.78 73.63 L998.78 73.63 L995.45 73.63 M995.45 68.82 L995.45 72.29 L998.48 72.29 Q998.99 72.29 999.4 72.07 Q999.82 71.85 1000.06 71.45 Q1000.3 71.05 1000.3 70.51 L1000.3 70.51 Q1000.3 69.77 999.8 69.3 Q999.3 68.82 998.48 68.82 L998.48 68.82 L995.45 68.82 M1011.65 79.24 L1011.65 79.24 Q1009.93 79.24 1008.73 78.48 Q1007.53 77.72 1006.9 76.37 Q1006.27 75.02 1006.27 73.24 L1006.27 73.24 Q1006.27 71.46 1006.9 70.11 Q1007.53 68.76 1008.73 68 Q1009.93 67.24 1011.65 67.24 L1011.65 67.24 Q1013.38 67.24 1014.58 68 Q1015.78 68.76 1016.4 70.11 Q1017.02 71.46 1017.02 73.24 L1017.02 73.24 Q1017.02 75.02 1016.4 76.37 Q1015.78 77.72 1014.58 78.48 Q1013.38 79.24 1011.65 79.24 M1011.65 77.88 L1011.65 77.88 Q1012.94 77.89 1013.8 77.3 Q1014.66 76.71 1015.08 75.66 Q1015.51 74.62 1015.51 73.24 L1015.51 73.24 Q1015.51 71.86 1015.08 70.82 Q1014.66 69.78 1013.8 69.19 Q1012.94 68.61 1011.65 68.6 L1011.65 68.6 Q1010.36 68.59 1009.51 69.18 Q1008.66 69.76 1008.22 70.81 Q1007.79 71.86 1007.78 73.24 L1007.78 73.24 Q1007.78 74.62 1008.21 75.66 Q1008.64 76.7 1009.5 77.28 Q1010.36 77.87 1011.65 77.88 M1026.36 79.24 L1026.36 79.24 Q1024.64 79.24 1023.44 78.48 Q1022.24 77.72 1021.61 76.37 Q1020.98 75.02 1020.98 73.24 L1020.98 73.24 Q1020.98 71.46 1021.61 70.11 Q1022.24 68.76 1023.44 68 Q1024.64 67.24 1026.36 67.24 L1026.36 67.24 Q1028.09 67.24 1029.29 68 Q1030.49 68.76 1031.11 70.11 Q1031.74 71.46 1031.74 73.24 L1031.74 73.24 Q1031.74 75.02 1031.11 76.37 Q1030.49 77.72 1029.29 78.48 Q1028.09 79.24 1026.36 79.24 M1026.36 77.88 L1026.36 77.88 Q1027.65 77.89 1028.51 77.3 Q1029.37 76.71 1029.8 75.66 Q1030.22 74.62 1030.22 73.24 L1030.22 73.24 Q1030.22 71.86 1029.8 70.82 Q1029.37 69.78 1028.51 69.19 Q1027.65 68.61 1026.36 68.6 L1026.36 68.6 Q1025.07 68.59 1024.22 69.18 Q1023.37 69.76 1022.94 70.81 Q1022.5 71.86 1022.5 73.24 L1022.5 73.24 Q1022.49 74.62 1022.92 75.66 Q1023.35 76.7 1024.21 77.28 Q1025.07 77.87 1026.36 77.88 M1037.76 79 L1036.34 79 L1036.34 67.48 L1037.76 67.48 L1037.76 72.89 L1042.8 67.48 L1044.59 67.48 L1039.36 73.07 L1045 79 L1043.16 79 L1037.76 73.37 L1037.76 79"/></g><g class="enter"><g transform="translate(1100 39)"><svg xmlns="http://www.w3.org/2000/svg" width="65" height="65" viewBox="0 0 24 24" fill="none" stroke="#D9B55D" stroke-width="1.5" stroke-linecap="round" stroke-linejoin="round" class="lucide lucide-compass" aria-hidden="true"><circle cx="12" cy="12" r="10"></circle><path d="m16.24 7.76-1.804 5.411a2 2 0 0 1-1.265 1.265L7.76 16.24l1.804-5.411a2 2 0 0 1 1.265-1.265z"></path></svg></g></g>
</svg>
