<svg xmlns="http://www.w3.org/2000/svg" xmlns:xlink="http://www.w3.org/1999/xlink" width="123" height="42" viewBox="0 0 123 42" role="img" aria-labelledby="title description">
<title id="title">GDScript</title>
<desc id="description">GDScript — нейтральная монограмма, не официальный логотип.</desc>

<rect x=".5" y=".5" width="122" height="41" rx="10" fill="#0D1117" stroke="#8B98AD" stroke-opacity=".24"/><g aria-label="GD" fill="#8AB4FF" opacity="1"><path d="M18.02 26.21 L18.02 26.21 Q17.07 26.21 16.21 25.87 Q15.35 25.53 14.69 24.87 Q14.03 24.2 13.64 23.22 Q13.26 22.24 13.26 20.96 L13.26 20.96 Q13.26 19.29 13.9 18.11 Q14.54 16.94 15.63 16.33 Q16.71 15.71 18.02 15.71 L18.02 15.71 Q19.97 15.71 21.08 16.61 Q22.2 17.52 22.57 19.17 L22.57 19.17 L20.63 19.45 Q20.35 18.57 19.73 18.04 Q19.12 17.51 18.15 17.5 L18.15 17.5 Q17.19 17.49 16.55 17.91 Q15.92 18.34 15.6 19.13 Q15.28 19.91 15.28 20.96 L15.28 20.96 Q15.28 22.01 15.6 22.78 Q15.92 23.55 16.55 23.98 Q17.19 24.4 18.15 24.42 L18.15 24.42 Q18.8 24.43 19.33 24.19 Q19.86 23.96 20.22 23.45 Q20.59 22.93 20.74 22.14 L20.74 22.14 L19.14 22.14 L19.14 20.67 L22.77 20.67 Q22.78 20.76 22.79 20.99 Q22.8 21.22 22.8 21.25 L22.8 21.25 Q22.8 22.7 22.21 23.82 Q21.62 24.94 20.55 25.58 Q19.48 26.21 18.02 26.21 M27.46 26 L24.2 26 L24.2 15.92 L27.46 15.92 Q27.58 15.92 27.95 15.93 Q28.32 15.93 28.66 15.98 L28.66 15.98 Q29.88 16.12 30.73 16.82 Q31.57 17.52 32.02 18.6 Q32.46 19.68 32.46 20.96 L32.46 20.96 Q32.46 22.24 32.02 23.32 Q31.57 24.4 30.73 25.1 Q29.88 25.8 28.66 25.94 L28.66 25.94 Q28.32 25.99 27.95 25.99 Q27.58 26 27.46 26 L27.46 26 M26.13 17.71 L26.13 24.21 L27.46 24.21 Q27.65 24.21 27.97 24.2 Q28.29 24.19 28.55 24.14 L28.55 24.14 Q29.21 24 29.63 23.52 Q30.04 23.04 30.24 22.36 Q30.44 21.68 30.44 20.96 L30.44 20.96 Q30.44 20.2 30.23 19.52 Q30.03 18.85 29.61 18.38 Q29.19 17.91 28.55 17.78 L28.55 17.78 Q28.29 17.73 27.97 17.72 Q27.65 17.71 27.46 17.71 L27.46 17.71 L26.13 17.71"/></g><g aria-label="GDScript" fill="#EDF2FA" opacity="1"><path d="M49.1 26.21 L49.1 26.21 Q48.09 26.21 47.23 25.86 Q46.38 25.5 45.75 24.82 Q45.12 24.14 44.77 23.17 Q44.42 22.2 44.42 20.96 L44.42 20.96 Q44.42 19.33 45.02 18.16 Q45.61 16.98 46.67 16.35 Q47.72 15.72 49.1 15.72 L49.1 15.72 Q50.88 15.72 51.94 16.54 Q53 17.37 53.39 18.82 L53.39 18.82 L51.9 19.09 Q51.59 18.19 50.91 17.65 Q50.22 17.11 49.19 17.1 L49.19 17.1 Q48.12 17.1 47.41 17.58 Q46.7 18.06 46.34 18.93 Q45.98 19.8 45.97 20.96 L45.97 20.96 Q45.97 22.11 46.32 22.98 Q46.68 23.84 47.4 24.33 Q48.12 24.81 49.19 24.82 L49.19 24.82 Q50.05 24.83 50.67 24.5 Q51.29 24.17 51.65 23.52 Q52.02 22.88 52.12 21.94 L52.12 21.94 L50.16 21.94 L50.16 20.76 L53.67 20.76 Q53.69 20.89 53.7 21.1 Q53.7 21.3 53.7 21.36 L53.7 21.36 Q53.7 22.76 53.16 23.86 Q52.62 24.96 51.59 25.58 Q50.57 26.21 49.1 26.21 M58.26 26 L55.1 26 L55.1 15.92 L58.26 15.92 Q58.4 15.92 58.78 15.93 Q59.16 15.93 59.51 15.98 L59.51 15.98 Q60.7 16.13 61.5 16.83 Q62.31 17.53 62.73 18.6 Q63.14 19.68 63.14 20.96 L63.14 20.96 Q63.14 22.25 62.73 23.32 Q62.31 24.4 61.5 25.09 Q60.7 25.79 59.51 25.94 L59.51 25.94 Q59.16 25.99 58.78 25.99 Q58.4 26 58.26 26 L58.26 26 M56.6 17.31 L56.6 24.61 L58.26 24.61 Q58.5 24.61 58.83 24.59 Q59.16 24.58 59.41 24.54 L59.41 24.54 Q60.18 24.39 60.66 23.87 Q61.14 23.35 61.36 22.58 Q61.58 21.82 61.58 20.96 L61.58 20.96 Q61.58 20.07 61.35 19.31 Q61.12 18.55 60.64 18.04 Q60.16 17.52 59.41 17.38 L59.41 17.38 Q59.16 17.33 58.82 17.32 Q58.49 17.31 58.26 17.31 L58.26 17.31 L56.6 17.31 M68.42 26.21 L68.42 26.21 Q67.34 26.21 66.47 25.84 Q65.59 25.46 65.03 24.76 Q64.47 24.07 64.3 23.11 L64.3 23.11 L65.83 22.88 Q66.06 23.8 66.79 24.32 Q67.53 24.83 68.51 24.83 L68.51 24.83 Q69.12 24.83 69.63 24.64 Q70.14 24.45 70.45 24.09 Q70.76 23.73 70.76 23.22 L70.76 23.22 Q70.76 22.95 70.67 22.74 Q70.57 22.53 70.41 22.37 Q70.24 22.21 70.01 22.1 Q69.77 21.98 69.49 21.9 L69.49 21.9 L66.91 21.13 Q66.53 21.02 66.14 20.84 Q65.75 20.67 65.42 20.38 Q65.1 20.09 64.89 19.65 Q64.69 19.22 64.69 18.61 L64.69 18.61 Q64.69 17.68 65.17 17.03 Q65.65 16.38 66.47 16.05 Q67.29 15.72 68.3 15.72 L68.3 15.72 Q69.33 15.73 70.13 16.08 Q70.94 16.43 71.48 17.09 Q72.01 17.74 72.22 18.67 L72.22 18.67 L70.65 18.94 Q70.54 18.37 70.2 17.96 Q69.86 17.55 69.36 17.33 Q68.86 17.11 68.28 17.1 L68.28 17.1 Q67.72 17.09 67.26 17.27 Q66.79 17.45 66.52 17.78 Q66.24 18.11 66.24 18.54 L66.24 18.54 Q66.24 18.96 66.48 19.22 Q66.73 19.48 67.09 19.63 Q67.45 19.78 67.81 19.88 L67.81 19.88 L69.67 20.4 Q70.02 20.5 70.46 20.66 Q70.91 20.83 71.32 21.12 Q71.74 21.41 72.01 21.9 Q72.29 22.39 72.29 23.12 L72.29 23.12 Q72.29 23.89 71.98 24.46 Q71.67 25.04 71.14 25.43 Q70.6 25.82 69.9 26.01 Q69.2 26.21 68.42 26.21 M77.01 26.21 L77.01 26.21 Q75.85 26.21 75.04 25.69 Q74.23 25.17 73.8 24.27 Q73.36 23.37 73.36 22.22 L73.36 22.22 Q73.36 21.05 73.81 20.15 Q74.25 19.25 75.07 18.74 Q75.89 18.23 77.03 18.23 L77.03 18.23 Q78.27 18.23 79.15 18.85 Q80.03 19.46 80.31 20.53 L80.31 20.53 L78.85 20.95 Q78.64 20.32 78.14 19.96 Q77.65 19.61 77.01 19.61 L77.01 19.61 Q76.29 19.61 75.83 19.95 Q75.37 20.29 75.14 20.88 Q74.92 21.46 74.91 22.22 L74.91 22.22 Q74.92 23.39 75.45 24.11 Q75.98 24.83 77.01 24.83 L77.01 24.83 Q77.72 24.83 78.16 24.51 Q78.59 24.18 78.83 23.57 L78.83 23.57 L80.31 23.92 Q79.94 25.03 79.08 25.62 Q78.23 26.21 77.01 26.21 M83.21 26 L81.74 26 L81.74 18.44 L83.04 18.44 L83.04 19.65 Q83.12 19.5 83.22 19.36 L83.22 19.36 Q83.45 19.06 83.74 18.87 L83.74 18.87 Q84.03 18.66 84.38 18.54 Q84.73 18.43 85.1 18.4 Q85.48 18.38 85.82 18.44 L85.82 18.44 L85.82 19.81 Q85.45 19.71 85 19.76 Q84.54 19.8 84.17 20.04 L84.17 20.04 Q83.81 20.27 83.6 20.6 Q83.4 20.93 83.31 21.33 Q83.21 21.74 83.21 22.18 L83.21 22.18 L83.21 26 M88.75 17.2 L87.29 17.2 L87.29 15.78 L88.75 15.78 L88.75 17.2 M88.75 26 L87.29 26 L87.29 18.44 L88.75 18.44 L88.75 26 M94.4 26.21 L94.4 26.21 Q93.32 26.21 92.58 25.68 L92.58 25.68 Q92.44 25.58 92.31 25.47 L92.31 25.47 L92.31 29.36 L90.84 29.36 L90.84 18.44 L92.15 18.44 L92.15 19.12 Q92.34 18.92 92.57 18.75 L92.57 18.75 Q93.3 18.23 94.37 18.23 L94.37 18.23 Q95.44 18.23 96.21 18.75 Q96.98 19.27 97.4 20.17 Q97.82 21.07 97.82 22.21 L97.82 22.21 Q97.82 23.35 97.41 24.25 Q96.99 25.16 96.22 25.68 Q95.46 26.21 94.4 26.21 M94.2 24.89 L94.2 24.89 Q94.9 24.89 95.36 24.53 Q95.81 24.17 96.04 23.57 Q96.27 22.96 96.27 22.21 L96.27 22.21 Q96.27 21.47 96.04 20.87 Q95.81 20.27 95.35 19.91 Q94.88 19.55 94.15 19.55 L94.15 19.55 Q93.46 19.55 93.02 19.89 Q92.57 20.23 92.36 20.83 Q92.15 21.43 92.15 22.21 Q92.15 23 92.36 23.6 Q92.57 24.2 93.02 24.54 Q93.48 24.89 94.2 24.89 M103.69 24.76 L103.69 26 Q102.98 26.14 102.29 26.12 Q101.6 26.1 101.06 25.85 Q100.53 25.61 100.25 25.08 L100.25 25.08 Q100.01 24.61 99.99 24.13 Q99.97 23.64 99.97 23.02 L99.97 23.02 L99.97 19.62 L98.52 19.62 L98.52 18.44 L99.97 18.44 L99.97 16.34 L101.44 16.34 L101.44 18.44 L103.69 18.44 L103.69 19.62 L101.44 19.62 L101.44 22.95 Q101.44 23.41 101.45 23.75 Q101.46 24.08 101.6 24.31 L101.6 24.31 Q101.85 24.75 102.4 24.81 Q102.95 24.87 103.69 24.76 L103.69 24.76"/></g>
</svg>
