<svg xmlns="http://www.w3.org/2000/svg" xmlns:xlink="http://www.w3.org/1999/xlink" width="97" height="42" viewBox="0 0 97 42" role="img" aria-labelledby="title description">
<title id="title">Ninja</title>
<desc id="description">Ninja — нейтральная монограмма, не официальный логотип.</desc>

<rect x=".5" y=".5" width="96" height="41" rx="10" fill="#0D1117" stroke="#8B98AD" stroke-opacity=".24"/><g aria-label="NI" fill="#8AB4FF" opacity="1"><path d="M18.74 26 L16.8 26 L16.8 15.92 L18.74 15.92 L23.12 22.64 L23.12 15.92 L25.05 15.92 L25.05 26 L23.12 26 L18.74 19.28 L18.74 26 M29.05 26 L27.15 26 L27.15 15.92 L29.05 15.92 L29.05 26"/></g><g aria-label="Ninja" fill="#EDF2FA" opacity="1"><path d="M46.46 26 L44.98 26 L44.98 15.92 L46.46 15.92 L51.43 23.41 L51.43 15.92 L52.91 15.92 L52.91 26 L51.43 26 L46.46 18.5 L46.46 26 M56.47 17.2 L55.01 17.2 L55.01 15.78 L56.47 15.78 L56.47 17.2 M56.47 26 L55.01 26 L55.01 18.44 L56.47 18.44 L56.47 26 M65.36 26 L63.88 26 L63.88 22.28 Q63.88 21.84 63.81 21.38 Q63.73 20.91 63.53 20.51 Q63.32 20.11 62.95 19.87 Q62.57 19.62 61.97 19.62 L61.97 19.62 Q61.58 19.62 61.23 19.75 Q60.88 19.88 60.61 20.17 Q60.35 20.46 60.2 20.93 Q60.05 21.39 60.05 22.07 L60.05 22.07 L60.05 26 L58.57 26 L58.57 18.44 L59.88 18.44 L59.88 19.35 Q60.19 18.95 60.63 18.68 L60.63 18.68 Q61.35 18.24 62.38 18.24 L62.38 18.24 Q63.16 18.24 63.69 18.49 Q64.22 18.74 64.56 19.15 Q64.89 19.56 65.06 20.04 Q65.24 20.53 65.3 20.99 Q65.36 21.45 65.36 21.8 L65.36 21.8 L65.36 26 M67.08 29.36 L66.06 29.36 L66.06 27.97 L66.45 27.97 Q67.03 27.97 67.3 27.69 Q67.57 27.41 67.57 26.83 L67.57 26.83 L67.57 18.44 L69.04 18.44 L69.04 27.43 Q69.04 28.35 68.53 28.86 Q68.02 29.36 67.08 29.36 L67.08 29.36 M69.04 17.2 L67.57 17.2 L67.57 15.78 L69.04 15.78 L69.04 17.2 M73.18 26.21 L73.18 26.21 Q72.34 26.21 71.77 25.9 Q71.2 25.59 70.91 25.07 Q70.62 24.56 70.62 23.94 L70.62 23.94 Q70.62 23.37 70.82 22.93 Q71.03 22.5 71.43 22.2 Q71.83 21.89 72.41 21.7 L72.41 21.7 Q72.91 21.55 73.55 21.44 Q74.18 21.33 74.89 21.23 L74.89 21.23 Q75.32 21.17 75.75 21.11 L75.75 21.11 Q75.72 20.39 75.38 20.01 L75.38 20.01 Q74.99 19.58 74.04 19.58 L74.04 19.58 Q73.45 19.58 72.95 19.86 Q72.46 20.13 72.26 20.77 L72.26 20.77 L70.89 20.35 Q71.17 19.38 71.96 18.8 Q72.75 18.23 74.06 18.23 L74.06 18.23 Q75.07 18.23 75.83 18.58 Q76.58 18.92 76.93 19.67 L76.93 19.67 Q77.11 20.04 77.15 20.46 Q77.19 20.87 77.19 21.34 L77.19 21.34 L77.19 26 L75.9 26 L75.9 24.9 Q75.5 25.47 74.96 25.78 L74.96 25.78 Q74.23 26.21 73.18 26.21 M73.44 25.01 L73.44 25.01 Q74.06 25.01 74.51 24.79 Q74.95 24.57 75.23 24.23 Q75.5 23.89 75.58 23.52 L75.58 23.52 Q75.7 23.18 75.72 22.76 L75.72 22.76 Q75.73 22.52 75.74 22.33 L75.74 22.33 Q75.32 22.39 74.95 22.45 L74.95 22.45 Q74.39 22.54 73.93 22.62 Q73.47 22.7 73.11 22.81 L73.11 22.81 Q72.81 22.91 72.58 23.06 Q72.34 23.21 72.21 23.42 Q72.07 23.63 72.07 23.93 L72.07 23.93 Q72.07 24.22 72.22 24.47 Q72.36 24.72 72.67 24.87 Q72.97 25.01 73.44 25.01"/></g>
</svg>
